<svg width="84" height="114" viewBox="0 0 84 114" fill="none" xmlns="http://www.w3.org/2000/svg">
<path d="M10.0301 102.06C11.4501 101.5 11.06 99.27 10.85 97.76C10.18 92.98 9.51 88.21 8.83 83.43C8.48 80.92 8.12 78.38 8.46 75.87C9.03 71.6 11.5 67.87 13.63 64.13C16 59.98 18.0101 55.62 19.6401 51.13C19.9801 50.18 20.31 49.18 20.11 48.19C20.03 47.82 19.88 47.47 19.7 47.15C18.49 44.97 15.94 43.79 13.45 43.59C11.62 43.44 7.36003 43.43 5.99003 44.96C4.67003 46.44 4.91004 50.52 4.62003 52.43C3.69003 58.39 2.54999 64.32 1.19999 70.19C0.979991 71.14 0.760093 72.1 0.680093 73.07C0.580093 74.32 0.720035 75.57 0.870035 76.82L6.76005 101.15C6.75005 101.15 7.52007 103.05 10.0301 102.06Z" fill="#4D4D4D"/>
<path d="M24.26 72.7C25.04 67.24 25.8199 61.7701 26.0899 56.27C26.1999 53.95 26.2199 51.61 25.8499 49.31C25.6299 47.94 25.2299 46.52 24.2399 45.56C21.0199 42.43 15.38 44.07 14.01 48.07C12.81 51.56 13.4599 55.37 13.8399 59.04C14.1899 62.45 14.2999 65.87 14.3699 69.3C14.5699 79.97 14.32 90.64 13.64 101.29C13.6 101.96 13.6 102.75 14.13 103.17C14.33 103.33 14.57 103.4 14.81 103.47C14.81 103.47 17.2 103.97 17.81 103.47C18.42 102.97 24 74.55 24.26 72.7Z" fill="#4D4D4D"/>
<path d="M10.99 106.16C11.36 106.04 11.75 106 12.11 105.86C13.23 105.41 13.69 104.1 14.01 102.94C14.05 102.8 14.0899 102.65 14.2099 102.56C14.3199 102.48 14.47 102.46 14.6 102.46C15.15 102.43 15.7 102.4 16.25 102.38C16.59 102.36 16.9699 102.36 17.1999 102.61C17.3999 102.82 17.42 103.15 17.42 103.44C17.42 104.14 17.43 104.84 17.43 105.55C17.43 105.93 17.43 106.32 17.31 106.67C17.13 107.19 16.71 107.59 16.36 108.02C15.88 108.61 15.52 109.3 14.93 109.77C14.45 110.15 13.85 110.35 13.25 110.51C12 110.84 9.77001 110.99 9.28001 109.38C8.92001 108.15 9.81997 106.55 10.99 106.16Z" fill="#3B3B3B"/>
<path d="M7.68001 101.78C7.44001 101.81 7.19995 101.85 6.99995 101.99C6.48995 102.36 6.64999 103.17 6.40999 103.75C6.18999 104.3 5.60998 104.62 5.02998 104.75C4.44998 104.88 3.84997 104.85 3.26997 104.91C3.00997 104.94 2.73996 104.98 2.50996 105.12C1.85996 105.51 1.80991 106.41 1.82991 107.17C1.82991 107.3 1.83999 107.44 1.90999 107.55C2.02999 107.76 2.31 107.8 2.55 107.83C5.19 108.09 7.86992 107.94 10.4699 107.38C10.7599 107.32 11.07 107.24 11.25 107C11.43 106.76 11.41 106.42 11.39 106.12C11.29 105 11.5199 102.96 10.8299 102.01C10.0999 101.01 8.67001 101.78 7.68001 101.78Z" fill="#3B3B3B"/>
<path d="M22.2099 75.35C22.1899 75.35 22.1899 75.39 22.2099 75.39C22.2299 75.39 22.2299 75.35 22.2099 75.35Z" fill="#3B3B3B"/>
<path d="M17.84 19.14C18.72 18.97 19.7201 18.78 20.4201 19.33C20.7701 19.61 20.9801 20.03 21.1801 20.43C22.2701 22.71 23.37 24.99 24.2 27.37C25.61 31.44 26.38 35.89 26.62 40.19C26.76 42.67 27.0901 45.13 27.1701 47.61C27.2401 49.7 26.77 51.62 26.63 53.62C21.64 53.77 16.5601 53.34 11.5501 53.39C10.3201 53.4 9.07005 53.41 7.89005 53.77C6.74005 54.12 5.57007 54.79 4.41007 54.4799C3.88007 51.06 3.54998 47.9299 4.31998 44.4699C4.83998 42.1499 5.70004 39.89 6.00004 37.51C6.36004 34.69 7.05003 31.9199 7.74003 29.1599C8.17003 27.4299 8.60008 25.71 9.04008 23.98C9.38008 22.62 9.51009 20.6399 10.3001 19.4699C11.0901 18.2999 12.1 18.99 13.2 19.24C14.71 19.59 16.33 19.44 17.84 19.14Z" fill="#F0F0F0"/>
<path d="M12.16 3.25C11.43 3.67 10.6999 4.12998 10.1999 4.79998C9.56995 5.64998 9.38006 6.73997 9.31006 7.78997C9.21006 9.21997 9.29003 10.66 9.53003 12.08C9.85003 14.01 10.5 15.97 11.9 17.34C13.3 18.7 15.62 19.27 17.27 18.22C18.78 17.27 19.32 15.35 19.65 13.59C19.92 12.12 20.12 10.65 20.25 9.15997C20.34 8.10997 20.4001 7.04001 20.1801 6.01001C19.9401 4.93001 19.4 3.92998 18.73 3.04998C16.97 0.769984 14.23 2.06 12.16 3.25Z" fill="#EDD5BE"/>
<path d="M15.71 7.95004C16.16 8.25004 16.69 8.40004 17.15 8.70004C17.69 9.06004 18.08 9.63003 18.22 10.26C18.25 10.39 18.3099 10.55 18.4399 10.55C18.5699 10.55 18.62 10.3701 18.72 10.2801C18.88 10.1401 19.15 10.27 19.22 10.46C19.3 10.65 19.2499 10.87 19.1999 11.08C18.8599 12.43 18.52 13.78 18.17 15.13C19.31 13.72 20.24 12.15 20.92 10.48C21.07 10.12 21.21 9.75001 21.24 9.36001C21.3 8.53001 20.8799 7.76002 20.4399 7.06002C19.9399 6.26002 19.34 5.45 18.46 5.1C17.94 4.89 17.36 4.87 16.8 4.91C16.09 4.96 15 5.25004 14.72 6.02004C14.48 6.71004 15.18 7.59004 15.71 7.95004Z" fill="#D9AC7C"/>
<path d="M21.25 5.01003C21.07 4.03003 20.79 3.03 20.13 2.29C19.68 1.78 19.08 1.42001 18.48 1.11001C17.98 0.850009 17.47 0.610014 16.92 0.490014C15.84 0.250014 14.72 0.479994 13.64 0.719994C11.96 1.08999 10.14 1.56999 9.14001 2.96999C8.47001 3.89999 8.13001 5.37003 8.26001 6.51003C8.27001 6.55003 8.28004 6.59003 8.29004 6.63003C7.97004 6.75003 7.66 6.92 7.37 7.1C6.1 7.91 4.86001 9.14 4.26001 10.54C5.59001 9.85 6.76004 9.16005 8.29004 8.90005C9.76004 8.65005 11.28 8.73 12.71 9.16C13.04 9.26 13.36 9.38 13.7 9.41C13.84 9.42 13.98 9.43002 14.1 9.37002C14.22 9.31002 14.31 9.21001 14.39 9.11001C14.83 8.61001 15.38 8.20002 15.99 7.93002C16.09 7.89002 16.19 7.84005 16.28 7.78005C17.08 8.08005 17.86 8.46001 18.59 8.92001C18.99 9.18001 19.39 9.46005 19.85 9.59005C20.31 9.72005 20.8599 9.67003 21.1899 9.32003C21.5099 8.98003 21.54 8.48004 21.54 8.02004C21.53 7.00004 21.43 6.00003 21.25 5.01003Z" fill="#333333"/>
<path d="M21.71 89.2C21.92 90.16 22.07 91.12 22.09 92.05C22.1 92.54 22.09 93.1 22.45 93.44C22.81 93.78 23.6101 93.46 23.4201 93.01C23.7901 93.59 24.1601 94.18 24.5301 94.76C24.3901 94.71 24.5101 94.47 24.6601 94.49C24.8001 94.51 24.89 94.66 24.95 94.79C25.21 95.33 25.46 95.86 25.72 96.4C27.06 96.9 28.4 97.4 29.74 97.9C31.54 98.57 32.59 99.78 34.59 100.3C36.97 100.91 39.4401 101.17 41.8901 101.33C46.5001 101.62 51.2201 101.53 55.6401 100.16C58.3701 99.32 60.9401 98.01 63.6801 97.17C65.9701 96.47 68.3901 96.11 70.5301 95.03C72.6701 93.95 74.54 91.88 74.49 89.49C74.47 88.61 74.2 87.75 73.82 86.96C71.54 82.06 65.87 79.54 60.48 79.12C55.09 78.7 49.72 79.95 44.34 80.47C42.59 80.64 40.68 80.7 39.22 79.72C38.56 79.28 38.0201 78.65 37.3001 78.32C36.5801 77.98 35.54 78.09 35.22 78.82C35.42 78.2 34.62 77.72 33.97 77.74C33.32 77.76 32.6301 78 32.0501 77.71C31.7601 77.56 31.52 77.29 31.2 77.27C30.61 77.25 30.2601 78.12 29.6701 78.07C29.1801 78.03 28.9201 77.38 28.4301 77.3C28.1701 77.26 27.9201 77.39 27.6801 77.5C26.4201 78.07 24.87 77.94 23.71 77.19C23.6 77.73 23.5001 78.28 23.3901 78.82C22.5401 78.23 21.29 78.93 20.94 79.9C19.84 82.88 21.04 86.1 21.71 89.2Z" fill="#BA9E80"/>
<path d="M13.22 79.44C12.69 80.2 12.54 81.19 11.96 81.92C11.12 82.98 9.55002 83.3 8.84002 84.44C8.24002 85.41 8.50011 86.77 9.30011 87.58C10.1001 88.39 11.35 88.67 12.47 88.46C12.99 88.36 13.4901 88.17 14.0201 88.11C16.6101 87.85 18.7901 90.99 21.3001 90.34C22.5101 90.03 23.35 88.89 23.69 87.69C24.03 86.49 23.97 85.22 23.97 83.97C23.97 82.41 24.0601 80.74 23.2601 79.4C22.5401 78.17 21.1601 77.42 19.7501 77.22C18.3401 77.02 16.9 77.32 15.57 77.83C14.67 78.17 13.77 78.64 13.22 79.44Z" fill="#BA9E80"/>
<path d="M47.52 104.76C47.67 103.85 46.98 102.89 46.07 102.73C46.47 102.57 46.88 102.41 47.28 102.25C45.54 101.61 44.9501 99.52 43.8101 98.06C43.0301 97.05 41.94 96.33 40.88 95.63C40.59 95.44 40.29 95.24 39.95 95.15C38.66 94.81 37.44 96.18 37.41 97.52C37.38 98.85 38.14 100.06 38.87 101.17C40.23 103.25 41.6 105.33 42.96 107.4C43.71 108.54 44.49 109.79 44.42 111.15C43.89 111.23 43.36 111.31 42.83 111.39C42.39 111.67 42.4401 112.38 42.8101 112.76C43.1701 113.14 43.72 113.26 44.23 113.37C45.14 113.56 46.19 113.71 46.9 113.11C47.37 112.71 47.55 112.08 47.64 111.47C47.92 109.61 47.5301 107.66 46.5601 106.06C46.8701 106.05 47.19 106.04 47.5 106.03C47.64 105.76 47.7099 105.45 47.6899 105.14C47.3599 105.1 47.04 104.97 46.78 104.76C47.04 104.76 47.28 104.76 47.52 104.76Z" fill="#BA9E80"/>
<path d="M61.27 100.15C62.38 101.62 64.28 102.23 66.09 102.58C67.9 102.93 69.8 103.11 71.39 104.03C72.7 104.79 73.6701 106.06 74.1601 107.48C74.4101 108.21 74.54 108.98 74.53 109.75C74.52 110.2 73.9601 111.72 74.1701 111.95C74.3001 112.09 74.51 112.13 74.7 112.16C75.7 112.27 76.45 112.14 76.77 111.18C77.07 110.29 77.21 109.34 77.21 108.4C77.21 106.52 76.62 104.63 75.49 103.12C74.75 102.13 73.76 101.21 73.57 99.99C73.08 99.95 72.58 99.62 72.5 99.14C72.42 98.66 72.95 98.14 73.39 98.35C73.63 98.16 73.51 97.76 73.27 97.57C73.03 97.39 72.72 97.33 72.46 97.17C71.87 96.82 71.67 96.09 71.4 95.47C71.12 94.85 70.54 94.2 69.88 94.36C70.49 93.9 70.23 92.73 69.48 92.58C70.25 92.7 70.7001 91.57 70.3101 90.9C69.9101 90.23 69.1 89.96 68.35 89.74C67.47 89.48 66.59 89.22 65.71 88.96C64.82 88.7 63.89 88.43 62.96 88.57C61.26 88.82 60.01 90.41 59.65 92.09C59.29 93.76 59.6401 95.51 60.0601 97.17C60.3101 98.22 60.61 99.29 61.27 100.15Z" fill="#BA9E80"/>
<path d="M29.1899 95.11C28.9999 95.05 28.81 94.99 28.61 94.93C27.63 96.6 28.27 98.7 28.13 100.63C27.96 102.97 26.64 105.04 25.36 107C24.73 107.96 24.02 108.98 22.93 109.32C22.44 109.47 21.87 109.49 21.53 109.87C21.1 110.35 21.33 111.17 21.86 111.53C22.39 111.89 23.09 111.89 23.71 111.77C25.35 111.45 26.75 110.4 28.08 109.38C28.48 109.08 28.88 108.77 29.23 108.41C29.99 107.63 30.48 106.62 30.96 105.64C31.25 105.04 31.54 104.43 31.84 103.83C32.12 103.24 32.79 102.56 33.29 102.98C33.03 103 33.15 102.54 33.4 102.48C33.65 102.42 33.99 102.45 34.1 102.22C34.12 101.72 33.82 101.22 33.37 101.01C34.02 101.08 34.65 100.64 34.99 100.07C35.32 99.5 35.41 98.83 35.46 98.17C35.55 96.88 35.46 95.49 34.68 94.47C33.63 93.11 31.54 92.84 30 93.61C28.44 94.37 29.6099 93.45 29.1899 95.11Z" fill="#BA9E80"/>
<path d="M82.11 96.46C82.29 96.81 82.57 97.11 82.9 97.33C82.19 97.62 81.49 97.92 80.78 98.21C81.09 98.42 81.4 98.62 81.71 98.83C80.55 99.27 79.36 99.72 78.12 99.76C76.88 99.8 75.55 99.36 74.84 98.34C74.38 97.68 74.22 96.8599 73.83 96.1599C73.27 95.1699 72.28 94.51 71.59 93.61C70.81 92.59 70.47 91.32 70.01 90.12C68.78 86.87 66.6599 83.96 63.9399 81.79C65.9199 80.75 68.3801 80.67 70.4301 81.57C72.4801 82.47 74.08 84.35 74.65 86.51C74.99 87.81 74.98 89.18 75.21 90.5C75.44 91.82 76 93.1899 77.13 93.9099C78.71 94.9099 81.12 94.09 81.76 92.33C82.85 92.42 83.78 93.45 83.76 94.54C83.22 94.59 82.69 94.64 82.15 94.68C82.7 95.1 83.25 95.52 83.8 95.95C83.36 96.37 82.71 96.56 82.11 96.46Z" fill="#BA9E80"/>
<path d="M57.0301 110.79C57.8001 111.87 59.5701 111.67 60.5401 110.77C61.5201 109.88 61.95 108.55 62.49 107.34C62.99 106.23 63.6 105.17 64.32 104.18C64.96 103.3 65.7 102.47 66.21 101.5C66.73 100.54 67.02 99.39 66.7 98.34C66.34 97.15 65.25 96.3 64.07 95.9C62.89 95.51 61.6201 95.51 60.3801 95.54C59.8801 95.55 59.3701 95.57 58.9301 95.79C58.4901 96.01 58.14 96.5 58.23 96.98C58.81 98.32 59.39 99.66 59.96 101C60.32 101.83 60.6801 102.67 60.7801 103.57C61.0001 105.54 59.88 107.47 58.33 108.7C57.65 109.27 56.7801 109.96 57.0301 110.79Z" fill="#BA9E80"/>
<path d="M27.72 63.04C27.93 62.9 28.03 62.63 28.08 62.38C28.2 61.82 28.1801 61.23 28.0501 60.67C27.9501 60.26 27.78 59.87 27.66 59.46C27.42 58.63 27.38 57.76 27.36 56.89C27.29 53.75 27.43 50.61 27.78 47.49C27.88 46.62 27.7901 45.44 26.9301 45.26C26.4201 45.15 25.9001 45.54 25.6801 46.02C25.4601 46.5 25.47 47.04 25.49 47.57C25.62 51.29 26 55.04 25.39 58.72C25.24 59.66 25.02 60.62 25.26 61.54C25.68 61.56 26.09 61.52 26.5 61.42C26.47 61.84 26.45 62.29 26.65 62.66C26.86 63.04 27.36 63.27 27.72 63.04Z" fill="#E0D0C1"/>
<path d="M19.45 21.19C20.05 19.82 21.69 19.69 23.08 20.84C24.42 21.95 25 23.8 25.79 25.29C27.41 28.35 28.37 31.48 28.64 34.95C28.95 38.93 28.5 42.93 28.05 46.9C27.08 47.37 25.98 47.55 24.91 47.42C24.3 43.88 23.69 40.31 22.54 36.91C20.93 32.14 19.01 27.44 19.2 22.3C19.23 21.86 19.31 21.5 19.45 21.19Z" fill="#5B6C7F"/>
<path d="M26.48 65.73C26.53 65.09 26.73 64.19 26.74 63.36C28.51 62.87 30.49 61.27 30.81 59.39C30.83 59.28 30.76 59.16 30.64 59.16C28.74 59.18 27.09 59.96 25.97 61.46C25.88 61.43 25.78 61.47 25.72 61.52C25.05 62.09 25.4 63.12 26.13 63.35C26.11 66.62 25.5399 69.98 24.9599 73.18C24.9399 73.32 25 73.47 25.15 73.51C26.95 73.94 25.68 75.78 25.11 76.83C24.59 77.78 24.37 78.86 24.23 79.92C24.18 80.28 24.74 80.27 24.79 79.92C25 78.27 25.6599 76.98 26.4599 75.56C26.8799 74.8 26.9899 74.11 26.7099 73.29C26.6699 73.18 26.5699 73.08 26.4499 73.09C24.9899 73.18 25.93 70.62 26.03 69.85C26.21 68.47 26.36 67.1 26.48 65.73ZM27.6999 60.27C27.7999 60.2 30.52 58.96 30.39 59.76C30.26 60.51 29.6 61.1 29.06 61.57C28.99 61.63 27.56 62.62 26.73 62.97C26.69 62.44 26.5399 61.95 26.1899 61.61C26.6199 61.08 27.0599 60.69 27.6999 60.27Z" fill="#444444"/>
</svg>
