<svg width="521" height="540" viewBox="0 0 521 540" fill="none" xmlns="http://www.w3.org/2000/svg">
<mask id="mask0_0_7553" style="mask-type:luminance" maskUnits="userSpaceOnUse" x="30" y="41" width="467" height="490">
<path d="M61.5 406C32.3 356 20.3001 307.4 39.4001 252.7C49.9001 222.6 99.3001 77.9999 128.8 65.8999C158.2 53.6999 187.3 33.0999 216 46.9999C227.1 52.3999 242.2 49.1999 257 45.9999C268 43.5999 278.9 41.2999 287.9 42.3999C308.2 44.8999 323.8 47.4999 343.5 42.0999C402 26.1999 438.9 209 476.3 256.7C484.9 267.7 492.1 280.1 495 293.7C501.7 324.8 485.2 355.9 467.9 382.6C444.1 419.2 417 454.3 382.9 481.6C348.8 508.9 307.2 528.3 263.5 530.1C222.2 531.9 181.1 517.9 146.7 494.9C112.4 472 84.4 440.5 61.5 406Z" fill="white"/>
</mask>
<g mask="url(#mask0_0_7553)">
<path d="M145.1 301.2C134 359.7 172.5 416.1 231.1 427.3C289.7 438.5 370.4 389.2 373.2 326.6C376.3 259.3 352.8 225.8 294.2 214.6C235.6 203.5 156.3 242.8 145.1 301.2Z" fill="#FAC7BC"/>
</g>
<mask id="mask1_0_7553" style="mask-type:luminance" maskUnits="userSpaceOnUse" x="30" y="41" width="467" height="490">
<path d="M61.5 406C32.3 356 20.3001 307.4 39.4001 252.7C49.9001 222.6 99.3001 77.9999 128.8 65.8999C158.2 53.6999 187.3 33.0999 216 46.9999C227.1 52.3999 242.2 49.1999 257 45.9999C268 43.5999 278.9 41.2999 287.9 42.3999C308.2 44.8999 323.8 47.4999 343.5 42.0999C402 26.1999 438.9 209 476.3 256.7C484.9 267.7 492.1 280.1 495 293.7C501.7 324.8 485.2 355.9 467.9 382.6C444.1 419.2 417 454.3 382.9 481.6C348.8 508.9 307.2 528.3 263.5 530.1C222.2 531.9 181.1 517.9 146.7 494.9C112.4 472 84.4 440.5 61.5 406Z" fill="white"/>
</mask>
<g mask="url(#mask1_0_7553)">
<path d="M337 404.1C296.8 441.5 207.5 454.6 159.8 438C153.8 435.9 146.3 416.9 140.7 391.6C127.6 331.6 115.5 266.8 106.2 189.4C103 162.8 104.3 142.5 109.3 138.9C154.1 106.3 221.7 95.0999 288 104.7C292.6 105.4 300 125 305.1 146.9C320.8 214 332.5 283.5 340.7 355.1C343.8 381.6 342.3 401.2 337 404.1Z" fill="#000706"/>
</g>
<mask id="mask2_0_7553" style="mask-type:luminance" maskUnits="userSpaceOnUse" x="30" y="41" width="467" height="490">
<path d="M61.5 406C32.3 356 20.3001 307.4 39.4001 252.7C49.9001 222.6 99.3001 77.9999 128.8 65.8999C158.2 53.6999 187.3 33.0999 216 46.9999C227.1 52.3999 242.2 49.1999 257 45.9999C268 43.5999 278.9 41.2999 287.9 42.3999C308.2 44.8999 323.8 47.4999 343.5 42.0999C402 26.1999 438.9 209 476.3 256.7C484.9 267.7 492.1 280.1 495 293.7C501.7 324.8 485.2 355.9 467.9 382.6C444.1 419.2 417 454.3 382.9 481.6C348.8 508.9 307.2 528.3 263.5 530.1C222.2 531.9 181.1 517.9 146.7 494.9C112.4 472 84.4 440.5 61.5 406Z" fill="white"/>
</mask>
<g mask="url(#mask2_0_7553)">
<path d="M326.8 386.4C289.6 420.2 207.2 432.4 163.4 417.6C157.8 415.7 151 398.7 146 375.8C134.1 321.8 123.2 263.4 114.9 193.7C112 169.8 113.1 151.3 117.9 148.2C166.6 116.6 233.9 109.2 282.8 116.7C287.1 117.4 293.8 134.9 298.4 154.7C312.6 215.1 323.1 277.7 330.4 342.1C333.1 366.2 331.6 383.9 326.8 386.4Z" fill="white"/>
</g>
<mask id="mask3_0_7553" style="mask-type:luminance" maskUnits="userSpaceOnUse" x="30" y="41" width="467" height="490">
<path d="M61.5 406C32.3 356 20.3001 307.4 39.4001 252.7C49.9001 222.6 99.3001 77.9999 128.8 65.8999C158.2 53.6999 187.3 33.0999 216 46.9999C227.1 52.3999 242.2 49.1999 257 45.9999C268 43.5999 278.9 41.2999 287.9 42.3999C308.2 44.8999 323.8 47.4999 343.5 42.0999C402 26.1999 438.9 209 476.3 256.7C484.9 267.7 492.1 280.1 495 293.7C501.7 324.8 485.2 355.9 467.9 382.6C444.1 419.2 417 454.3 382.9 481.6C348.8 508.9 307.2 528.3 263.5 530.1C222.2 531.9 181.1 517.9 146.7 494.9C112.4 472 84.4 440.5 61.5 406Z" fill="white"/>
</mask>
<g mask="url(#mask3_0_7553)">
<path d="M112.5 236.5C89.5 240.5 72.9 255.9 74.8 272.1C75.8 280.6 81.6 287.7 90.3 292.3C85.1 298.2 82.5 305.1 83.3 312.1C84.1 318.7 87.8 324.4 93.4 328.9C88.9 334.5 86.6 341 87.4 347.5C88.7 359.2 99.3001 368.2 113.8 371.9C113.1 374.5 112.9 377.2 113.2 379.9C114.7 392.9 127.6 402.5 143.8 403.9C142.7 400 141.7 395.8 140.8 391.4C130.5 344.1 120.7 293.7 112.5 236.5Z" fill="#66B8C1"/>
</g>
<mask id="mask4_0_7553" style="mask-type:luminance" maskUnits="userSpaceOnUse" x="30" y="41" width="467" height="490">
<path d="M61.5 406C32.3 356 20.3001 307.4 39.4001 252.7C49.9001 222.6 99.3001 77.9999 128.8 65.8999C158.2 53.6999 187.3 33.0999 216 46.9999C227.1 52.3999 242.2 49.1999 257 45.9999C268 43.5999 278.9 41.2999 287.9 42.3999C308.2 44.8999 323.8 47.4999 343.5 42.0999C402 26.1999 438.9 209 476.3 256.7C484.9 267.7 492.1 280.1 495 293.7C501.7 324.8 485.2 355.9 467.9 382.6C444.1 419.2 417 454.3 382.9 481.6C348.8 508.9 307.2 528.3 263.5 530.1C222.2 531.9 181.1 517.9 146.7 494.9C112.4 472 84.4 440.5 61.5 406Z" fill="white"/>
</mask>
<g mask="url(#mask4_0_7553)">
<path d="M120.3 235.6C119 235.7 117.7 235.8 116.3 235.9C115 236 113.8 236.2 112.5 236.4C120.7 293.6 130.4 344.1 140.8 391.4C141.8 395.8 142.8 400 143.8 403.9C145.1 404 146.5 404.1 147.9 404.1C149.8 404.1 151.7 404 153.6 403.8C153.8 403.8 153.9 403.8 154.1 403.7C151.2 396.4 148.4 386.8 145.9 375.8C136.5 333 127.7 287.4 120.3 235.6Z" fill="#000605"/>
</g>
<mask id="mask5_0_7553" style="mask-type:luminance" maskUnits="userSpaceOnUse" x="30" y="41" width="467" height="490">
<path d="M61.5 406C32.3 356 20.3001 307.4 39.4001 252.7C49.9001 222.6 99.3001 77.9999 128.8 65.8999C158.2 53.6999 187.3 33.0999 216 46.9999C227.1 52.3999 242.2 49.1999 257 45.9999C268 43.5999 278.9 41.2999 287.9 42.3999C308.2 44.8999 323.8 47.4999 343.5 42.0999C402 26.1999 438.9 209 476.3 256.7C484.9 267.7 492.1 280.1 495 293.7C501.7 324.8 485.2 355.9 467.9 382.6C444.1 419.2 417 454.3 382.9 481.6C348.8 508.9 307.2 528.3 263.5 530.1C222.2 531.9 181.1 517.9 146.7 494.9C112.4 472 84.4 440.5 61.5 406Z" fill="white"/>
</mask>
<g mask="url(#mask5_0_7553)">
<path d="M123.9 235.5C122.7 235.5 121.5 235.5 120.3 235.6C127.7 287.4 136.5 333 145.9 375.9C148.3 386.9 151.2 396.6 154.1 403.8C174.4 401.3 189.3 386.8 187.5 371.4C186.6 363.5 181.4 356.8 173.9 352.5C176.9 347.7 178.2 342.5 177.6 337.1C176.8 330.5 173.1 324.8 167.5 320.3C172 314.7 174.3 308.2 173.5 301.7C172.5 293.2 166.7 286.1 158 281.5C163.2 275.6 165.8 268.7 165 261.7C163.3 246.3 145.5 235.5 123.9 235.5Z" fill="#E2DCDC"/>
</g>
<mask id="mask6_0_7553" style="mask-type:luminance" maskUnits="userSpaceOnUse" x="30" y="41" width="467" height="490">
<path d="M61.5 406C32.3 356 20.3001 307.4 39.4001 252.7C49.9001 222.6 99.3001 77.9999 128.8 65.8999C158.2 53.6999 187.3 33.0999 216 46.9999C227.1 52.3999 242.2 49.1999 257 45.9999C268 43.5999 278.9 41.2999 287.9 42.3999C308.2 44.8999 323.8 47.4999 343.5 42.0999C402 26.1999 438.9 209 476.3 256.7C484.9 267.7 492.1 280.1 495 293.7C501.7 324.8 485.2 355.9 467.9 382.6C444.1 419.2 417 454.3 382.9 481.6C348.8 508.9 307.2 528.3 263.5 530.1C222.2 531.9 181.1 517.9 146.7 494.9C112.4 472 84.4 440.5 61.5 406Z" fill="white"/>
</mask>
<g mask="url(#mask6_0_7553)">
<path d="M117.7 293.9C143.3 290.9 162.4 274.3 160.4 256.7C158.4 239.1 136 227.3 110.3 230.2C84.7 233.2 65.6 249.8 67.6 267.4C69.6 285 91.9999 296.9 117.7 293.9Z" fill="#FAC7BC"/>
</g>
<mask id="mask7_0_7553" style="mask-type:luminance" maskUnits="userSpaceOnUse" x="29" y="16" width="467" height="499">
<path d="M73.6461 412.418C38.8988 366.1 21.3987 319.198 34.0931 262.666C41.0683 231.56 73.5422 82.243 101.458 66.8362C129.264 51.3416 155.807 27.5369 185.913 38.0504C197.56 42.1405 212.193 37.2281 226.528 32.3502C237.18 28.7032 247.744 25.1671 256.811 25.2266C277.264 25.3797 293.059 26.1716 312.009 18.5457C368.298 -3.96516 425.94 173.392 468.569 216.484C478.375 226.424 486.951 237.916 491.393 251.093C501.619 281.218 488.798 314.007 474.678 342.517C455.236 381.608 432.345 419.587 401.604 450.622C370.863 481.656 331.764 505.704 288.56 512.509C247.739 519.038 205.303 509.849 168.489 490.95C131.787 472.139 100.356 444.061 73.6461 412.418Z" fill="white"/>
</mask>
<g mask="url(#mask7_0_7553)">
<path d="M126.314 335.059C151.936 332.098 171.061 315.466 169.032 297.909C167.004 280.353 144.589 268.521 118.967 271.481C93.3456 274.442 74.22 291.075 76.2489 308.631C78.2778 326.188 100.693 338.02 126.314 335.059Z" fill="#FAC7BC"/>
</g>
<mask id="mask8_0_7553" style="mask-type:luminance" maskUnits="userSpaceOnUse" x="30" y="41" width="467" height="490">
<path d="M61.5 406C32.3 356 20.3001 307.4 39.4001 252.7C49.9001 222.6 99.3001 77.9999 128.8 65.8999C158.2 53.6999 187.3 33.0999 216 46.9999C227.1 52.3999 242.2 49.1999 257 45.9999C268 43.5999 278.9 41.2999 287.9 42.3999C308.2 44.8999 323.8 47.4999 343.5 42.0999C402 26.1999 438.9 209 476.3 256.7C484.9 267.7 492.1 280.1 495 293.7C501.7 324.8 485.2 355.9 467.9 382.6C444.1 419.2 417 454.3 382.9 481.6C348.8 508.9 307.2 528.3 263.5 530.1C222.2 531.9 181.1 517.9 146.7 494.9C112.4 472 84.4 440.5 61.5 406Z" fill="white"/>
</mask>
<g mask="url(#mask8_0_7553)">
<path d="M130.6 371.4C156.2 368.4 175.3 351.8 173.3 334.2C171.3 316.6 148.9 304.8 123.2 307.7C97.5999 310.7 78.5 327.3 80.5 344.9C82.5 362.6 104.9 374.4 130.6 371.4Z" fill="#FAC7BC"/>
</g>
<mask id="mask9_0_7553" style="mask-type:luminance" maskUnits="userSpaceOnUse" x="30" y="41" width="467" height="490">
<path d="M61.5 406C32.3 356 20.3001 307.4 39.4001 252.7C49.9001 222.6 99.3001 77.9999 128.8 65.8999C158.2 53.6999 187.3 33.0999 216 46.9999C227.1 52.3999 242.2 49.1999 257 45.9999C268 43.5999 278.9 41.2999 287.9 42.3999C308.2 44.8999 323.8 47.4999 343.5 42.0999C402 26.1999 438.9 209 476.3 256.7C484.9 267.7 492.1 280.1 495 293.7C501.7 324.8 485.2 355.9 467.9 382.6C444.1 419.2 417 454.3 382.9 481.6C348.8 508.9 307.2 528.3 263.5 530.1C222.2 531.9 181.1 517.9 146.7 494.9C112.4 472 84.4 440.5 61.5 406Z" fill="white"/>
</mask>
<g mask="url(#mask9_0_7553)">
<path d="M148.6 402.9C169.7 400.5 185.3 385.5 183.4 369.5C181.6 353.5 163 342.5 141.9 345C120.8 347.4 105.2 362.4 107.1 378.4C109 394.3 127.6 405.3 148.6 402.9Z" fill="#FAC7BC"/>
</g>
<mask id="mask10_0_7553" style="mask-type:luminance" maskUnits="userSpaceOnUse" x="30" y="41" width="467" height="490">
<path d="M61.5 406C32.3 356 20.3001 307.4 39.4001 252.7C49.9001 222.6 99.3001 77.9999 128.8 65.8999C158.2 53.6999 187.3 33.0999 216 46.9999C227.1 52.3999 242.2 49.1999 257 45.9999C268 43.5999 278.9 41.2999 287.9 42.3999C308.2 44.8999 323.8 47.4999 343.5 42.0999C402 26.1999 438.9 209 476.3 256.7C484.9 267.7 492.1 280.1 495 293.7C501.7 324.8 485.2 355.9 467.9 382.6C444.1 419.2 417 454.3 382.9 481.6C348.8 508.9 307.2 528.3 263.5 530.1C222.2 531.9 181.1 517.9 146.7 494.9C112.4 472 84.4 440.5 61.5 406Z" fill="white"/>
</mask>
<g mask="url(#mask10_0_7553)">
<path d="M85.6 289.9C85.8 289.9 86.1 289.8 86.3 289.6C105.3 276.6 135.6 280.2 135.9 280.2C136.8 280.3 137.7 279.6 137.8 278.7C137.9 277.7 137.2 276.9 136.3 276.8C136 276.8 128.3 275.8 118 276.6C108.5 277.3 94.9 279.6 84.3 286.8C83.5 287.3 83.3 288.4 83.8 289.2C84.3 289.8 84.9 290 85.6 289.9Z" fill="#E46278"/>
</g>
<mask id="mask11_0_7553" style="mask-type:luminance" maskUnits="userSpaceOnUse" x="30" y="41" width="467" height="490">
<path d="M61.5 406C32.3 356 20.3001 307.4 39.4001 252.7C49.9001 222.6 99.3001 77.9999 128.8 65.8999C158.2 53.6999 187.3 33.0999 216 46.9999C227.1 52.3999 242.2 49.1999 257 45.9999C268 43.5999 278.9 41.2999 287.9 42.3999C308.2 44.8999 323.8 47.4999 343.5 42.0999C402 26.1999 438.9 209 476.3 256.7C484.9 267.7 492.1 280.1 495 293.7C501.7 324.8 485.2 355.9 467.9 382.6C444.1 419.2 417 454.3 382.9 481.6C348.8 508.9 307.2 528.3 263.5 530.1C222.2 531.9 181.1 517.9 146.7 494.9C112.4 472 84.4 440.5 61.5 406Z" fill="white"/>
</mask>
<g mask="url(#mask11_0_7553)">
<path d="M88.8 327.4C89 327.4 89.3 327.3 89.5 327.1C108.5 314.1 138.8 317.7 139.1 317.7C140 317.8 140.9 317.1 141 316.2C141.1 315.2 140.4 314.4 139.5 314.3C139.2 314.3 131.5 313.3 121.2 314.1C111.7 314.8 98.1 317.1 87.5 324.3C86.7 324.8 86.5 325.9 87 326.7C87.5 327.3 88.2 327.5 88.8 327.4Z" fill="#E46278"/>
</g>
<mask id="mask12_0_7553" style="mask-type:luminance" maskUnits="userSpaceOnUse" x="30" y="41" width="467" height="490">
<path d="M61.5 406C32.3 356 20.3001 307.4 39.4001 252.7C49.9001 222.6 99.3001 77.9999 128.8 65.8999C158.2 53.6999 187.3 33.0999 216 46.9999C227.1 52.3999 242.2 49.1999 257 45.9999C268 43.5999 278.9 41.2999 287.9 42.3999C308.2 44.8999 323.8 47.4999 343.5 42.0999C402 26.1999 438.9 209 476.3 256.7C484.9 267.7 492.1 280.1 495 293.7C501.7 324.8 485.2 355.9 467.9 382.6C444.1 419.2 417 454.3 382.9 481.6C348.8 508.9 307.2 528.3 263.5 530.1C222.2 531.9 181.1 517.9 146.7 494.9C112.4 472 84.4 440.5 61.5 406Z" fill="white"/>
</mask>
<g mask="url(#mask12_0_7553)">
<path d="M110.1 371.1C110.3 371 110.6 370.9 110.7 370.7C127.3 354.8 157.8 353.4 158.1 353.4C159.1 353.4 159.8 352.6 159.8 351.6C159.8 350.6 159 349.9 158 349.9C157.7 349.9 149.9 350.2 139.9 352.6C130.6 354.8 117.6 359.3 108.3 368.1C107.6 368.8 107.6 369.9 108.2 370.6C108.8 371.2 109.5 371.3 110.1 371.1Z" fill="#E46278"/>
</g>
<mask id="mask13_0_7553" style="mask-type:luminance" maskUnits="userSpaceOnUse" x="30" y="41" width="467" height="490">
<path d="M61.5 406C32.3 356 20.3001 307.4 39.4001 252.7C49.9001 222.6 99.3001 77.9999 128.8 65.8999C158.2 53.6999 187.3 33.0999 216 46.9999C227.1 52.3999 242.2 49.1999 257 45.9999C268 43.5999 278.9 41.2999 287.9 42.3999C308.2 44.8999 323.8 47.4999 343.5 42.0999C402 26.1999 438.9 209 476.3 256.7C484.9 267.7 492.1 280.1 495 293.7C501.7 324.8 485.2 355.9 467.9 382.6C444.1 419.2 417 454.3 382.9 481.6C348.8 508.9 307.2 528.3 263.5 530.1C222.2 531.9 181.1 517.9 146.7 494.9C112.4 472 84.4 440.5 61.5 406Z" fill="white"/>
</mask>
<g mask="url(#mask13_0_7553)">
<path d="M331.7 285.9C329 286.4 326.2 286.7 323.3 286.7C323.6 289 324 291.3 324.3 293.7C327.2 293.6 330.1 293.2 332.7 292.6C332.3 290.3 332 288.1 331.7 285.9Z" fill="#000605"/>
</g>
<mask id="mask14_0_7553" style="mask-type:luminance" maskUnits="userSpaceOnUse" x="30" y="41" width="467" height="490">
<path d="M61.5 406C32.3 356 20.3001 307.4 39.4001 252.7C49.9001 222.6 99.3001 77.9999 128.8 65.8999C158.2 53.6999 187.3 33.0999 216 46.9999C227.1 52.3999 242.2 49.1999 257 45.9999C268 43.5999 278.9 41.2999 287.9 42.3999C308.2 44.8999 323.8 47.4999 343.5 42.0999C402 26.1999 438.9 209 476.3 256.7C484.9 267.7 492.1 280.1 495 293.7C501.7 324.8 485.2 355.9 467.9 382.6C444.1 419.2 417 454.3 382.9 481.6C348.8 508.9 307.2 528.3 263.5 530.1C222.2 531.9 181.1 517.9 146.7 494.9C112.4 472 84.4 440.5 61.5 406Z" fill="white"/>
</mask>
<g mask="url(#mask14_0_7553)">
<path d="M265.9 243.6C261.9 259.3 275.1 278.6 297.1 288.2C305.5 291.9 314.1 293.6 322 293.6C322.8 293.6 323.5 293.6 324.2 293.6C323.9 291.3 323.5 289 323.2 286.6C323 286.6 322.8 286.6 322.6 286.6C314.7 286.6 306.1 284.8 297.7 281.2C278.9 273 266.6 257.7 265.9 243.6Z" fill="#E2DCDC"/>
</g>
<mask id="mask15_0_7553" style="mask-type:luminance" maskUnits="userSpaceOnUse" x="30" y="41" width="467" height="490">
<path d="M61.5 406C32.3 356 20.3001 307.4 39.4001 252.7C49.9001 222.6 99.3001 77.9999 128.8 65.8999C158.2 53.6999 187.3 33.0999 216 46.9999C227.1 52.3999 242.2 49.1999 257 45.9999C268 43.5999 278.9 41.2999 287.9 42.3999C308.2 44.8999 323.8 47.4999 343.5 42.0999C402 26.1999 438.9 209 476.3 256.7C484.9 267.7 492.1 280.1 495 293.7C501.7 324.8 485.2 355.9 467.9 382.6C444.1 419.2 417 454.3 382.9 481.6C348.8 508.9 307.2 528.3 263.5 530.1C222.2 531.9 181.1 517.9 146.7 494.9C112.4 472 84.4 440.5 61.5 406Z" fill="white"/>
</mask>
<g mask="url(#mask15_0_7553)">
<path d="M354.5 267.1C354.2 268.3 353.8 269.4 353.3 270.5C349.8 278.6 341.7 283.9 331.6 285.8C331.7 286.1 332.9 288.2 334.5 292C342.9 289.6 349.5 284.7 352.6 277.5C354.1 274.2 354.7 270.7 354.5 267.1Z" fill="#DEACA2"/>
</g>
<mask id="mask16_0_7553" style="mask-type:luminance" maskUnits="userSpaceOnUse" x="30" y="41" width="467" height="490">
<path d="M61.5 406C32.3 356 20.3001 307.4 39.4001 252.7C49.9001 222.6 99.3001 77.9999 128.8 65.8999C158.2 53.6999 187.3 33.0999 216 46.9999C227.1 52.3999 242.2 49.1999 257 45.9999C268 43.5999 278.9 41.2999 287.9 42.3999C308.2 44.8999 323.8 47.4999 343.5 42.0999C402 26.1999 438.9 209 476.3 256.7C484.9 267.7 492.1 280.1 495 293.7C501.7 324.8 485.2 355.9 467.9 382.6C444.1 419.2 417 454.3 382.9 481.6C348.8 508.9 307.2 528.3 263.5 530.1C222.2 531.9 181.1 517.9 146.7 494.9C112.4 472 84.4 440.5 61.5 406Z" fill="white"/>
</mask>
<g mask="url(#mask16_0_7553)">
<path d="M297.7 281.2C321.3 291.5 346.2 286.7 353.3 270.5C360.4 254.3 346.9 232.8 323.3 222.5C299.7 212.2 274.8 217 267.7 233.2C260.7 249.4 274.1 270.9 297.7 281.2Z" fill="#FAC7BC"/>
</g>
<mask id="mask17_0_7553" style="mask-type:luminance" maskUnits="userSpaceOnUse" x="30" y="41" width="467" height="490">
<path d="M61.5 406C32.3 356 20.3001 307.4 39.4001 252.7C49.9001 222.6 99.3001 77.9999 128.8 65.8999C158.2 53.6999 187.3 33.0999 216 46.9999C227.1 52.3999 242.2 49.1999 257 45.9999C268 43.5999 278.9 41.2999 287.9 42.3999C308.2 44.8999 323.8 47.4999 343.5 42.0999C402 26.1999 438.9 209 476.3 256.7C484.9 267.7 492.1 280.1 495 293.7C501.7 324.8 485.2 355.9 467.9 382.6C444.1 419.2 417 454.3 382.9 481.6C348.8 508.9 307.2 528.3 263.5 530.1C222.2 531.9 181.1 517.9 146.7 494.9C112.4 472 84.4 440.5 61.5 406Z" fill="white"/>
</mask>
<g mask="url(#mask17_0_7553)">
<path d="M323.1 284.3C322.9 284.2 322.6 284.1 322.4 284.1C299.4 283.7 276.7 263.3 276.5 263.1C275.8 262.5 274.7 262.5 274.1 263.2C273.5 263.9 273.5 265 274.2 265.6C274.4 265.8 280.2 271 289 276.4C297.2 281.4 309.6 287.3 322.4 287.5C323.4 287.5 324.1 286.8 324.2 285.8C324 285.2 323.6 284.6 323.1 284.3Z" fill="#E46278"/>
</g>
<mask id="mask18_0_7553" style="mask-type:luminance" maskUnits="userSpaceOnUse" x="30" y="41" width="467" height="490">
<path d="M61.5 406C32.3 356 20.3001 307.4 39.4001 252.7C49.9001 222.6 99.3001 77.9999 128.8 65.8999C158.2 53.6999 187.3 33.0999 216 46.9999C227.1 52.3999 242.2 49.1999 257 45.9999C268 43.5999 278.9 41.2999 287.9 42.3999C308.2 44.8999 323.8 47.4999 343.5 42.0999C402 26.1999 438.9 209 476.3 256.7C484.9 267.7 492.1 280.1 495 293.7C501.7 324.8 485.2 355.9 467.9 382.6C444.1 419.2 417 454.3 382.9 481.6C348.8 508.9 307.2 528.3 263.5 530.1C222.2 531.9 181.1 517.9 146.7 494.9C112.4 472 84.4 440.5 61.5 406Z" fill="white"/>
</mask>
<g mask="url(#mask18_0_7553)">
<path d="M334.6 292C334 292.2 333.3 292.3 332.7 292.5C335.6 311.5 338.7 330.9 340.6 349.8C341.6 349.9 342.7 350.1 343.7 350.4C345.1 350.8 346.4 351.3 347.7 352C347.5 325.3 339.1 302.5 334.6 292Z" fill="#DEACA2"/>
</g>
<mask id="mask19_0_7553" style="mask-type:luminance" maskUnits="userSpaceOnUse" x="30" y="41" width="467" height="490">
<path d="M61.5 406C32.3 356 20.3001 307.4 39.4001 252.7C49.9001 222.6 99.3001 77.9999 128.8 65.8999C158.2 53.6999 187.3 33.0999 216 46.9999C227.1 52.3999 242.2 49.1999 257 45.9999C268 43.5999 278.9 41.2999 287.9 42.3999C308.2 44.8999 323.8 47.4999 343.5 42.0999C402 26.1999 438.9 209 476.3 256.7C484.9 267.7 492.1 280.1 495 293.7C501.7 324.8 485.2 355.9 467.9 382.6C444.1 419.2 417 454.3 382.9 481.6C348.8 508.9 307.2 528.3 263.5 530.1C222.2 531.9 181.1 517.9 146.7 494.9C112.4 472 84.4 440.5 61.5 406Z" fill="white"/>
</mask>
<g mask="url(#mask19_0_7553)">
<path d="M331.7 285.9C332 288.1 332.3 290.3 332.7 292.6C333.3 292.4 334 292.3 334.6 292.1C333 288.3 331.8 286.1 331.7 285.9Z" fill="#C5948C"/>
</g>
<mask id="mask20_0_7553" style="mask-type:luminance" maskUnits="userSpaceOnUse" x="30" y="41" width="467" height="490">
<path d="M61.5 406C32.3 356 20.3001 307.4 39.4001 252.7C49.9001 222.6 99.3001 77.9999 128.8 65.8999C158.2 53.6999 187.3 33.0999 216 46.9999C227.1 52.3999 242.2 49.1999 257 45.9999C268 43.5999 278.9 41.2999 287.9 42.3999C308.2 44.8999 323.8 47.4999 343.5 42.0999C402 26.1999 438.9 209 476.3 256.7C484.9 267.7 492.1 280.1 495 293.7C501.7 324.8 485.2 355.9 467.9 382.6C444.1 419.2 417 454.3 382.9 481.6C348.8 508.9 307.2 528.3 263.5 530.1C222.2 531.9 181.1 517.9 146.7 494.9C112.4 472 84.4 440.5 61.5 406Z" fill="white"/>
</mask>
<g mask="url(#mask20_0_7553)">
<path d="M201.9 130.5C202 134.1 199.2 137.1 195.5 137.2C191.9 137.3 188.9 134.5 188.8 130.8C188.7 127.2 191.5 124.2 195.2 124.1C198.8 124 201.8 126.9 201.9 130.5Z" fill="#E2DCDC"/>
</g>
<mask id="mask21_0_7553" style="mask-type:luminance" maskUnits="userSpaceOnUse" x="30" y="41" width="467" height="490">
<path d="M61.5 406C32.3 356 20.3001 307.4 39.4001 252.7C49.9001 222.6 99.3001 77.9999 128.8 65.8999C158.2 53.6999 187.3 33.0999 216 46.9999C227.1 52.3999 242.2 49.1999 257 45.9999C268 43.5999 278.9 41.2999 287.9 42.3999C308.2 44.8999 323.8 47.4999 343.5 42.0999C402 26.1999 438.9 209 476.3 256.7C484.9 267.7 492.1 280.1 495 293.7C501.7 324.8 485.2 355.9 467.9 382.6C444.1 419.2 417 454.3 382.9 481.6C348.8 508.9 307.2 528.3 263.5 530.1C222.2 531.9 181.1 517.9 146.7 494.9C112.4 472 84.4 440.5 61.5 406Z" fill="white"/>
</mask>
<g mask="url(#mask21_0_7553)">
<path d="M200.3 129.5C200.4 133.1 197.6 136.1 193.9 136.2C190.3 136.3 187.3 133.5 187.2 129.8C187.1 126.2 189.9 123.2 193.6 123.1C197.1 123 200.1 125.9 200.3 129.5Z" fill="#000706"/>
</g>
<mask id="mask22_0_7553" style="mask-type:luminance" maskUnits="userSpaceOnUse" x="30" y="41" width="467" height="490">
<path d="M61.5 406C32.3 356 20.3001 307.4 39.4001 252.7C49.9001 222.6 99.3001 77.9999 128.8 65.8999C158.2 53.6999 187.3 33.0999 216 46.9999C227.1 52.3999 242.2 49.1999 257 45.9999C268 43.5999 278.9 41.2999 287.9 42.3999C308.2 44.8999 323.8 47.4999 343.5 42.0999C402 26.1999 438.9 209 476.3 256.7C484.9 267.7 492.1 280.1 495 293.7C501.7 324.8 485.2 355.9 467.9 382.6C444.1 419.2 417 454.3 382.9 481.6C348.8 508.9 307.2 528.3 263.5 530.1C222.2 531.9 181.1 517.9 146.7 494.9C112.4 472 84.4 440.5 61.5 406Z" fill="white"/>
</mask>
<g mask="url(#mask22_0_7553)">
<path d="M298.4 149.3C270.3 149.3 247.6 172 247.6 200.1C247.6 208.5 249.7 216.5 253.3 223.5L247.6 247.8L267.7 240.6C276.2 247.1 286.9 251 298.4 251C326.5 251 349.2 228.3 349.2 200.2C349.2 172 326.5 149.3 298.4 149.3Z" fill="#3A394C"/>
<mask id="mask23_0_7553" style="mask-type:luminance" maskUnits="userSpaceOnUse" x="247" y="149" width="103" height="102">
<path d="M298.4 149.3C270.3 149.3 247.6 172 247.6 200.1C247.6 208.5 249.7 216.5 253.3 223.5L247.6 247.8L267.7 240.6C276.2 247.1 286.9 251 298.4 251C326.5 251 349.2 228.3 349.2 200.2C349.2 172 326.5 149.3 298.4 149.3Z" fill="white"/>
</mask>
<g mask="url(#mask23_0_7553)">
<path d="M247.7 203.2C248.1 210.5 250.1 217.3 253.3 223.4L247.6 247.7L267.7 240.5C276.2 247 286.9 250.9 298.4 250.9C310 250.9 320.7 247 329.3 240.4C325.4 240.7 321.5 240.8 317.7 240.8C287.7 240.8 262.4 231.6 247.7 203.2Z" fill="#2C2B3B"/>
</g>
</g>
<mask id="mask24_0_7553" style="mask-type:luminance" maskUnits="userSpaceOnUse" x="30" y="41" width="467" height="490">
<path d="M61.5 406C32.3 356 20.3001 307.4 39.4001 252.7C49.9001 222.6 99.3001 77.9999 128.8 65.8999C158.2 53.6999 187.3 33.0999 216 46.9999C227.1 52.3999 242.2 49.1999 257 45.9999C268 43.5999 278.9 41.2999 287.9 42.3999C308.2 44.8999 323.8 47.4999 343.5 42.0999C402 26.1999 438.9 209 476.3 256.7C484.9 267.7 492.1 280.1 495 293.7C501.7 324.8 485.2 355.9 467.9 382.6C444.1 419.2 417 454.3 382.9 481.6C348.8 508.9 307.2 528.3 263.5 530.1C222.2 531.9 181.1 517.9 146.7 494.9C112.4 472 84.4 440.5 61.5 406Z" fill="white"/>
</mask>
<g mask="url(#mask24_0_7553)">
<path d="M300.4 172.5C300.9 172.7 301.4 172.6 301.9 172.7C311.4 173.9 319.5 180.1 323.1 189C323.7 190.6 324.2 192.2 324.5 193.9C324.6 194.6 324.5 195.1 323.9 195.5C323.4 195.9 322.9 195.9 322.3 195.6C321.8 195.4 321.6 195 321.5 194.5C320.2 188.2 317 183.1 311.6 179.5C307.8 176.9 303.5 175.5 298.8 175.5C297 175.5 295.1 175.5 293.3 175.8C291.2 176.1 289.3 177 287.6 178.2C287.2 178.5 286.8 178.6 286.3 178.5C285.7 178.3 285.3 177.9 285.2 177.3C285.1 176.7 285.3 176.2 285.8 175.8C287.9 174.4 290.1 173.3 292.6 172.8C293.4 172.7 294.2 172.6 294.9 172.5C295 172.5 295.1 172.6 295.2 172.4C297 172.5 298.7 172.5 300.4 172.5Z" fill="white"/>
</g>
<mask id="mask25_0_7553" style="mask-type:luminance" maskUnits="userSpaceOnUse" x="30" y="41" width="467" height="490">
<path d="M61.5 406C32.3 356 20.3001 307.4 39.4001 252.7C49.9001 222.6 99.3001 77.9999 128.8 65.8999C158.2 53.6999 187.3 33.0999 216 46.9999C227.1 52.3999 242.2 49.1999 257 45.9999C268 43.5999 278.9 41.2999 287.9 42.3999C308.2 44.8999 323.8 47.4999 343.5 42.0999C402 26.1999 438.9 209 476.3 256.7C484.9 267.7 492.1 280.1 495 293.7C501.7 324.8 485.2 355.9 467.9 382.6C444.1 419.2 417 454.3 382.9 481.6C348.8 508.9 307.2 528.3 263.5 530.1C222.2 531.9 181.1 517.9 146.7 494.9C112.4 472 84.4 440.5 61.5 406Z" fill="white"/>
</mask>
<g mask="url(#mask25_0_7553)">
<path d="M325 201.9C324.9 202 324.9 202.1 324.9 202.2C324.8 204.9 324.5 207.6 324 210.3C323.8 211.2 323.1 211.7 322.2 211.6C321.4 211.5 320.9 210.7 321 209.8C321.6 206.2 321.9 202.6 321.9 199C321.9 198.2 322.4 197.5 323.1 197.4C323.9 197.3 324.5 197.7 324.8 198.5H324.9C325 199.7 325 200.8 325 201.9Z" fill="white"/>
</g>
<mask id="mask26_0_7553" style="mask-type:luminance" maskUnits="userSpaceOnUse" x="30" y="41" width="467" height="490">
<path d="M61.5 406C32.3 356 20.3001 307.4 39.4001 252.7C49.9001 222.6 99.3001 77.9999 128.8 65.8999C158.2 53.6999 187.3 33.0999 216 46.9999C227.1 52.3999 242.2 49.1999 257 45.9999C268 43.5999 278.9 41.2999 287.9 42.3999C308.2 44.8999 323.8 47.4999 343.5 42.0999C402 26.1999 438.9 209 476.3 256.7C484.9 267.7 492.1 280.1 495 293.7C501.7 324.8 485.2 355.9 467.9 382.6C444.1 419.2 417 454.3 382.9 481.6C348.8 508.9 307.2 528.3 263.5 530.1C222.2 531.9 181.1 517.9 146.7 494.9C112.4 472 84.4 440.5 61.5 406Z" fill="white"/>
</mask>
<g mask="url(#mask26_0_7553)">
<path d="M287.1 199.5C287 197.8 287.3 196 288.1 194.3C290.2 189.9 293.7 187.5 298.6 187.5C303.5 187.5 307 190 309.1 194.5C309.6 195.6 308.8 196.7 307.7 196.6C307.1 196.6 306.6 196.2 306.4 195.6C305.7 194.1 304.7 192.8 303.3 191.9C298.1 188.4 291 191.6 290.2 197.8C290.1 198.7 290.1 199.6 290.1 200.5C289.7 207.8 287.1 214.1 282.3 219.6C281.7 220.3 280.8 220.4 280.2 219.8C279.6 219.2 279.5 218.3 280.1 217.6C283.1 214.2 285.1 210.3 286.3 205.9C286.8 203.9 287.1 201.6 287.1 199.5Z" fill="white"/>
</g>
<mask id="mask27_0_7553" style="mask-type:luminance" maskUnits="userSpaceOnUse" x="30" y="41" width="467" height="490">
<path d="M61.5 406C32.3 356 20.3001 307.4 39.4001 252.7C49.9001 222.6 99.3001 77.9999 128.8 65.8999C158.2 53.6999 187.3 33.0999 216 46.9999C227.1 52.3999 242.2 49.1999 257 45.9999C268 43.5999 278.9 41.2999 287.9 42.3999C308.2 44.8999 323.8 47.4999 343.5 42.0999C402 26.1999 438.9 209 476.3 256.7C484.9 267.7 492.1 280.1 495 293.7C501.7 324.8 485.2 355.9 467.9 382.6C444.1 419.2 417 454.3 382.9 481.6C348.8 508.9 307.2 528.3 263.5 530.1C222.2 531.9 181.1 517.9 146.7 494.9C112.4 472 84.4 440.5 61.5 406Z" fill="white"/>
</mask>
<g mask="url(#mask27_0_7553)">
<path d="M309.7 181.4C309.7 182.6 308.5 183.3 307.5 182.7C306.3 182.1 305.2 181.6 303.9 181.2C293.4 178.1 282.7 184.6 280.6 195.4C280.4 196.2 279.9 196.8 279.1 196.8C278.4 196.8 277.8 196.3 277.6 195.6C277.5 195.3 277.6 195 277.7 194.7C279.4 186.1 286.5 179.2 295.3 177.8C300.1 177.1 304.6 177.8 308.9 180.1C309.4 180.4 309.7 180.8 309.7 181.4Z" fill="white"/>
</g>
<mask id="mask28_0_7553" style="mask-type:luminance" maskUnits="userSpaceOnUse" x="30" y="41" width="467" height="490">
<path d="M61.5 406C32.3 356 20.3001 307.4 39.4001 252.7C49.9001 222.6 99.3001 77.9999 128.8 65.8999C158.2 53.6999 187.3 33.0999 216 46.9999C227.1 52.3999 242.2 49.1999 257 45.9999C268 43.5999 278.9 41.2999 287.9 42.3999C308.2 44.8999 323.8 47.4999 343.5 42.0999C402 26.1999 438.9 209 476.3 256.7C484.9 267.7 492.1 280.1 495 293.7C501.7 324.8 485.2 355.9 467.9 382.6C444.1 419.2 417 454.3 382.9 481.6C348.8 508.9 307.2 528.3 263.5 530.1C222.2 531.9 181.1 517.9 146.7 494.9C112.4 472 84.4 440.5 61.5 406Z" fill="white"/>
</mask>
<g mask="url(#mask28_0_7553)">
<path d="M320 200.2C319.8 207.1 318.6 213.8 316.2 220.2C316 220.8 315.6 221.2 314.9 221.3C314.3 221.4 313.9 221.2 313.5 220.7C313.1 220.2 313.1 219.7 313.3 219.2C314.2 216.8 314.9 214.4 315.5 211.9C316.5 207.5 317.1 203 317 198.4C316.9 193.6 315.1 189.5 311.8 186C311.5 185.7 311.3 185.4 311.2 185.1C311.1 184.4 311.4 183.8 312 183.5C312.6 183.2 313.3 183.3 313.8 183.8C316.6 186.6 318.5 190 319.4 193.9C319.9 196 320.1 198.1 320 200.2Z" fill="white"/>
</g>
<mask id="mask29_0_7553" style="mask-type:luminance" maskUnits="userSpaceOnUse" x="30" y="41" width="467" height="490">
<path d="M61.5 406C32.3 356 20.3001 307.4 39.4001 252.7C49.9001 222.6 99.3001 77.9999 128.8 65.8999C158.2 53.6999 187.3 33.0999 216 46.9999C227.1 52.3999 242.2 49.1999 257 45.9999C268 43.5999 278.9 41.2999 287.9 42.3999C308.2 44.8999 323.8 47.4999 343.5 42.0999C402 26.1999 438.9 209 476.3 256.7C484.9 267.7 492.1 280.1 495 293.7C501.7 324.8 485.2 355.9 467.9 382.6C444.1 419.2 417 454.3 382.9 481.6C348.8 508.9 307.2 528.3 263.5 530.1C222.2 531.9 181.1 517.9 146.7 494.9C112.4 472 84.4 440.5 61.5 406Z" fill="white"/>
</mask>
<g mask="url(#mask29_0_7553)">
<path d="M305.1 200.2C305 204.5 304.3 208.6 303 212.7C302.7 213.6 301.9 214 301.1 213.8C300.3 213.5 299.8 212.7 300.1 211.9C301 209.1 301.6 206.2 301.9 203.3C302.1 201.8 302.1 200.4 302.1 198.9C302.1 197 300.5 195.5 298.6 195.5C296.7 195.5 295.2 197 295.1 198.9C295.1 199.9 294.4 200.5 293.6 200.5C292.7 200.5 292.1 199.8 292.2 198.8C292.3 195.5 294.9 192.7 298.1 192.5C301.6 192.3 304.5 194.6 305 198C305.1 198.7 305 199.5 305.1 200.2Z" fill="white"/>
</g>
<mask id="mask30_0_7553" style="mask-type:luminance" maskUnits="userSpaceOnUse" x="30" y="41" width="467" height="490">
<path d="M61.5 406C32.3 356 20.3001 307.4 39.4001 252.7C49.9001 222.6 99.3001 77.9999 128.8 65.8999C158.2 53.6999 187.3 33.0999 216 46.9999C227.1 52.3999 242.2 49.1999 257 45.9999C268 43.5999 278.9 41.2999 287.9 42.3999C308.2 44.8999 323.8 47.4999 343.5 42.0999C402 26.1999 438.9 209 476.3 256.7C484.9 267.7 492.1 280.1 495 293.7C501.7 324.8 485.2 355.9 467.9 382.6C444.1 419.2 417 454.3 382.9 481.6C348.8 508.9 307.2 528.3 263.5 530.1C222.2 531.9 181.1 517.9 146.7 494.9C112.4 472 84.4 440.5 61.5 406Z" fill="white"/>
</mask>
<g mask="url(#mask30_0_7553)">
<path d="M300.1 200.2C299.7 209.4 296.7 217.5 291.1 224.6C290.5 225.3 289.6 225.5 288.9 224.9C288.2 224.4 288.1 223.4 288.7 222.7C292.6 217.7 295.2 212.2 296.4 205.9C296.8 203.6 297.1 201.3 297.1 199C297.1 198 297.7 197.4 298.6 197.4C299.4 197.4 300 198 300.1 198.8C300.1 199.3 300.1 199.8 300.1 200.2Z" fill="white"/>
</g>
<mask id="mask31_0_7553" style="mask-type:luminance" maskUnits="userSpaceOnUse" x="30" y="41" width="467" height="490">
<path d="M61.5 406C32.3 356 20.3001 307.4 39.4001 252.7C49.9001 222.6 99.3001 77.9999 128.8 65.8999C158.2 53.6999 187.3 33.0999 216 46.9999C227.1 52.3999 242.2 49.1999 257 45.9999C268 43.5999 278.9 41.2999 287.9 42.3999C308.2 44.8999 323.8 47.4999 343.5 42.0999C402 26.1999 438.9 209 476.3 256.7C484.9 267.7 492.1 280.1 495 293.7C501.7 324.8 485.2 355.9 467.9 382.6C444.1 419.2 417 454.3 382.9 481.6C348.8 508.9 307.2 528.3 263.5 530.1C222.2 531.9 181.1 517.9 146.7 494.9C112.4 472 84.4 440.5 61.5 406Z" fill="white"/>
</mask>
<g mask="url(#mask31_0_7553)">
<path d="M280.8 207C280.8 206.8 280.9 206.6 280.9 206.4C281.7 203.9 282.1 201.4 282.1 198.8C282.1 192 286.4 185.9 292.6 183.5C293.3 183.3 293.8 183.3 294.3 183.8C294.7 184.3 294.8 184.8 294.6 185.4C294.4 185.8 294.1 186.1 293.6 186.3C291.1 187.3 289.1 188.9 287.5 191C285.9 193.3 285 195.9 285 198.7C285 201.6 284.5 204.5 283.6 207.3C283.4 208 282.8 208.4 282.1 208.4C281.4 208.4 280.9 207.9 280.7 207.3C280.8 207.3 280.8 207.1 280.8 207Z" fill="white"/>
</g>
<mask id="mask32_0_7553" style="mask-type:luminance" maskUnits="userSpaceOnUse" x="30" y="41" width="467" height="490">
<path d="M61.5 406C32.3 356 20.3001 307.4 39.4001 252.7C49.9001 222.6 99.3001 77.9999 128.8 65.8999C158.2 53.6999 187.3 33.0999 216 46.9999C227.1 52.3999 242.2 49.1999 257 45.9999C268 43.5999 278.9 41.2999 287.9 42.3999C308.2 44.8999 323.8 47.4999 343.5 42.0999C402 26.1999 438.9 209 476.3 256.7C484.9 267.7 492.1 280.1 495 293.7C501.7 324.8 485.2 355.9 467.9 382.6C444.1 419.2 417 454.3 382.9 481.6C348.8 508.9 307.2 528.3 263.5 530.1C222.2 531.9 181.1 517.9 146.7 494.9C112.4 472 84.4 440.5 61.5 406Z" fill="white"/>
</mask>
<g mask="url(#mask32_0_7553)">
<path d="M315 199.4C315 200 315 200.6 315 201.2C315 202.1 314.3 202.7 313.5 202.7C312.7 202.7 312 202 312 201.1C312 200.3 312 199.6 312 198.8C312 192.2 307 186.5 300.5 185.6C299.9 185.5 299.3 185.5 298.7 185.5C297.8 185.5 297.1 184.9 297.1 184C297.1 183.1 297.8 182.5 298.7 182.5C306 182.5 312.5 187.6 314.4 194.6C314.6 195.4 314.8 196.2 314.9 197C315 197.8 315 198.6 315 199.4Z" fill="white"/>
</g>
<mask id="mask33_0_7553" style="mask-type:luminance" maskUnits="userSpaceOnUse" x="30" y="41" width="467" height="490">
<path d="M61.5 406C32.3 356 20.3001 307.4 39.4001 252.7C49.9001 222.6 99.3001 77.9999 128.8 65.8999C158.2 53.6999 187.3 33.0999 216 46.9999C227.1 52.3999 242.2 49.1999 257 45.9999C268 43.5999 278.9 41.2999 287.9 42.3999C308.2 44.8999 323.8 47.4999 343.5 42.0999C402 26.1999 438.9 209 476.3 256.7C484.9 267.7 492.1 280.1 495 293.7C501.7 324.8 485.2 355.9 467.9 382.6C444.1 419.2 417 454.3 382.9 481.6C348.8 508.9 307.2 528.3 263.5 530.1C222.2 531.9 181.1 517.9 146.7 494.9C112.4 472 84.4 440.5 61.5 406Z" fill="white"/>
</mask>
<g mask="url(#mask33_0_7553)">
<path d="M281.1 179.8C281.6 179.8 282.1 180.1 282.4 180.7C282.7 181.3 282.5 181.9 282.1 182.3C281.2 183.2 280.3 184.2 279.6 185.3C276.8 189.3 275.3 193.8 275.3 198.7C275.3 200.7 275 202.6 274.3 204.5C274 205.3 273.3 205.7 272.5 205.5C271.8 205.4 271.3 204.7 271.3 204C271.3 203.9 271.3 203.7 271.4 203.6C272 201.9 272.2 200.2 272.3 198.4C272.5 191.4 275 185.4 279.9 180.4C280.2 180 280.5 179.8 281.1 179.8Z" fill="white"/>
</g>
<mask id="mask34_0_7553" style="mask-type:luminance" maskUnits="userSpaceOnUse" x="30" y="41" width="467" height="490">
<path d="M61.5 406C32.3 356 20.3001 307.4 39.4001 252.7C49.9001 222.6 99.3001 77.9999 128.8 65.8999C158.2 53.6999 187.3 33.0999 216 46.9999C227.1 52.3999 242.2 49.1999 257 45.9999C268 43.5999 278.9 41.2999 287.9 42.3999C308.2 44.8999 323.8 47.4999 343.5 42.0999C402 26.1999 438.9 209 476.3 256.7C484.9 267.7 492.1 280.1 495 293.7C501.7 324.8 485.2 355.9 467.9 382.6C444.1 419.2 417 454.3 382.9 481.6C348.8 508.9 307.2 528.3 263.5 530.1C222.2 531.9 181.1 517.9 146.7 494.9C112.4 472 84.4 440.5 61.5 406Z" fill="white"/>
</mask>
<g mask="url(#mask34_0_7553)">
<path d="M309.9 202.3C309.5 208.1 308.1 213.8 305.8 219.2C304.8 221.5 303.6 223.7 302.3 225.9C301.9 226.6 301.2 226.8 300.5 226.6C299.8 226.4 299.4 225.7 299.5 225.1C299.5 224.8 299.7 224.5 299.8 224.3C302.5 219.9 304.5 215.1 305.7 210.1C306.3 207.5 306.7 204.9 306.9 202.3C307 201.3 307.5 200.7 308.3 200.7C309.3 200.5 310 201.3 309.9 202.3Z" fill="white"/>
</g>
<mask id="mask35_0_7553" style="mask-type:luminance" maskUnits="userSpaceOnUse" x="30" y="41" width="467" height="490">
<path d="M61.5 406C32.3 356 20.3001 307.4 39.4001 252.7C49.9001 222.6 99.3001 77.9999 128.8 65.8999C158.2 53.6999 187.3 33.0999 216 46.9999C227.1 52.3999 242.2 49.1999 257 45.9999C268 43.5999 278.9 41.2999 287.9 42.3999C308.2 44.8999 323.8 47.4999 343.5 42.0999C402 26.1999 438.9 209 476.3 256.7C484.9 267.7 492.1 280.1 495 293.7C501.7 324.8 485.2 355.9 467.9 382.6C444.1 419.2 417 454.3 382.9 481.6C348.8 508.9 307.2 528.3 263.5 530.1C222.2 531.9 181.1 517.9 146.7 494.9C112.4 472 84.4 440.5 61.5 406Z" fill="white"/>
</mask>
<g mask="url(#mask35_0_7553)">
<path d="M307.7 225.2C306.4 225.2 305.7 224 306.2 223C307 221.4 307.7 219.8 308.4 218.1C309.7 214.7 310.7 211.2 311.3 207.7C311.5 206.8 312.2 206.2 313.1 206.4C313.9 206.5 314.4 207.3 314.3 208.2C313.4 213.8 311.6 219.2 309 224.3C308.7 224.9 308.2 225.2 307.7 225.2Z" fill="white"/>
</g>
<mask id="mask36_0_7553" style="mask-type:luminance" maskUnits="userSpaceOnUse" x="30" y="41" width="467" height="490">
<path d="M61.5 406C32.3 356 20.3001 307.4 39.4001 252.7C49.9001 222.6 99.3001 77.9999 128.8 65.8999C158.2 53.6999 187.3 33.0999 216 46.9999C227.1 52.3999 242.2 49.1999 257 45.9999C268 43.5999 278.9 41.2999 287.9 42.3999C308.2 44.8999 323.8 47.4999 343.5 42.0999C402 26.1999 438.9 209 476.3 256.7C484.9 267.7 492.1 280.1 495 293.7C501.7 324.8 485.2 355.9 467.9 382.6C444.1 419.2 417 454.3 382.9 481.6C348.8 508.9 307.2 528.3 263.5 530.1C222.2 531.9 181.1 517.9 146.7 494.9C112.4 472 84.4 440.5 61.5 406Z" fill="white"/>
</mask>
<g mask="url(#mask36_0_7553)">
<path d="M289.7 216.4C288.6 216.4 287.9 215.2 288.4 214.2C288.9 213.1 289.4 212.1 289.8 211C290.6 208.9 291.2 206.8 291.6 204.6C291.8 203.7 292.5 203.2 293.3 203.3C294.2 203.5 294.7 204.2 294.5 205.1C293.9 208.7 292.7 212.2 291 215.5C290.8 216.1 290.3 216.4 289.7 216.4Z" fill="white"/>
</g>
<mask id="mask37_0_7553" style="mask-type:luminance" maskUnits="userSpaceOnUse" x="30" y="41" width="467" height="490">
<path d="M61.5 406C32.3 356 20.3001 307.4 39.4001 252.7C49.9001 222.6 99.3001 77.9999 128.8 65.8999C158.2 53.6999 187.3 33.0999 216 46.9999C227.1 52.3999 242.2 49.1999 257 45.9999C268 43.5999 278.9 41.2999 287.9 42.3999C308.2 44.8999 323.8 47.4999 343.5 42.0999C402 26.1999 438.9 209 476.3 256.7C484.9 267.7 492.1 280.1 495 293.7C501.7 324.8 485.2 355.9 467.9 382.6C444.1 419.2 417 454.3 382.9 481.6C348.8 508.9 307.2 528.3 263.5 530.1C222.2 531.9 181.1 517.9 146.7 494.9C112.4 472 84.4 440.5 61.5 406Z" fill="white"/>
</mask>
<g mask="url(#mask37_0_7553)">
<path d="M279.9 202.1C279.8 203.1 279.5 204.1 279.2 205.1C278.5 207.3 277.5 209.4 276.1 211.3C275.7 211.8 275.2 212.1 274.6 212C274 211.9 273.6 211.5 273.4 210.9C273.3 210.4 273.4 210 273.7 209.6C275.2 207.5 276.2 205.2 276.7 202.7C276.8 202.4 276.8 202 276.9 201.7C277.1 200.9 277.8 200.5 278.6 200.5C279.4 200.6 279.9 201.2 279.9 202.1Z" fill="white"/>
</g>
<mask id="mask38_0_7553" style="mask-type:luminance" maskUnits="userSpaceOnUse" x="30" y="41" width="467" height="490">
<path d="M61.5 406C32.3 356 20.3001 307.4 39.4001 252.7C49.9001 222.6 99.3001 77.9999 128.8 65.8999C158.2 53.6999 187.3 33.0999 216 46.9999C227.1 52.3999 242.2 49.1999 257 45.9999C268 43.5999 278.9 41.2999 287.9 42.3999C308.2 44.8999 323.8 47.4999 343.5 42.0999C402 26.1999 438.9 209 476.3 256.7C484.9 267.7 492.1 280.1 495 293.7C501.7 324.8 485.2 355.9 467.9 382.6C444.1 419.2 417 454.3 382.9 481.6C348.8 508.9 307.2 528.3 263.5 530.1C222.2 531.9 181.1 517.9 146.7 494.9C112.4 472 84.4 440.5 61.5 406Z" fill="white"/>
</mask>
<g mask="url(#mask38_0_7553)">
<path d="M293.7 225C293.7 224.7 293.8 224.4 294 224.2C295.5 222 296.9 219.8 298.2 217.5C298.6 216.7 299.5 216.5 300.2 216.9C300.9 217.3 301.2 218.2 300.8 218.9C299.5 221.3 298 223.7 296.4 225.9C296 226.5 295.3 226.7 294.7 226.4C294.1 226.2 293.7 225.7 293.7 225Z" fill="white"/>
</g>
<mask id="mask39_0_7553" style="mask-type:luminance" maskUnits="userSpaceOnUse" x="30" y="41" width="467" height="490">
<path d="M61.5 406C32.3 356 20.3001 307.4 39.4001 252.7C49.9001 222.6 99.3001 77.9999 128.8 65.8999C158.2 53.6999 187.3 33.0999 216 46.9999C227.1 52.3999 242.2 49.1999 257 45.9999C268 43.5999 278.9 41.2999 287.9 42.3999C308.2 44.8999 323.8 47.4999 343.5 42.0999C402 26.1999 438.9 209 476.3 256.7C484.9 267.7 492.1 280.1 495 293.7C501.7 324.8 485.2 355.9 467.9 382.6C444.1 419.2 417 454.3 382.9 481.6C348.8 508.9 307.2 528.3 263.5 530.1C222.2 531.9 181.1 517.9 146.7 494.9C112.4 472 84.4 440.5 61.5 406Z" fill="white"/>
</mask>
<g mask="url(#mask39_0_7553)">
<path d="M285.1 223.1C284.6 223.1 284.2 222.8 283.9 222.3C283.6 221.8 283.6 221.2 284 220.7C284.9 219.6 285.8 218.4 286.6 217.2C287.1 216.6 288 216.4 288.6 216.9C289.2 217.3 289.5 218.2 289 218.9C288.2 220.2 287.2 221.4 286.2 222.6C286 222.9 285.6 223.1 285.1 223.1Z" fill="white"/>
</g>
<mask id="mask40_0_7553" style="mask-type:luminance" maskUnits="userSpaceOnUse" x="30" y="41" width="467" height="490">
<path d="M61.5 406C32.3 356 20.3001 307.4 39.4001 252.7C49.9001 222.6 99.3001 77.9999 128.8 65.8999C158.2 53.6999 187.3 33.0999 216 46.9999C227.1 52.3999 242.2 49.1999 257 45.9999C268 43.5999 278.9 41.2999 287.9 42.3999C308.2 44.8999 323.8 47.4999 343.5 42.0999C402 26.1999 438.9 209 476.3 256.7C484.9 267.7 492.1 280.1 495 293.7C501.7 324.8 485.2 355.9 467.9 382.6C444.1 419.2 417 454.3 382.9 481.6C348.8 508.9 307.2 528.3 263.5 530.1C222.2 531.9 181.1 517.9 146.7 494.9C112.4 472 84.4 440.5 61.5 406Z" fill="white"/>
</mask>
<g mask="url(#mask40_0_7553)">
<path d="M281.6 211.7C281.6 212 281.5 212.2 281.4 212.5C280.7 213.7 279.9 214.8 278.9 215.9C278.3 216.6 277.4 216.7 276.8 216.1C276.1 215.6 276 214.7 276.6 214C277.4 213 278.2 212 278.8 210.9C279.2 210.3 279.9 210.1 280.5 210.3C281.2 210.5 281.6 211.1 281.6 211.7Z" fill="white"/>
</g>
<mask id="mask41_0_7553" style="mask-type:luminance" maskUnits="userSpaceOnUse" x="30" y="41" width="467" height="490">
<path d="M61.5 406C32.3 356 20.3001 307.4 39.4001 252.7C49.9001 222.6 99.3001 77.9999 128.8 65.8999C158.2 53.6999 187.3 33.0999 216 46.9999C227.1 52.3999 242.2 49.1999 257 45.9999C268 43.5999 278.9 41.2999 287.9 42.3999C308.2 44.8999 323.8 47.4999 343.5 42.0999C402 26.1999 438.9 209 476.3 256.7C484.9 267.7 492.1 280.1 495 293.7C501.7 324.8 485.2 355.9 467.9 382.6C444.1 419.2 417 454.3 382.9 481.6C348.8 508.9 307.2 528.3 263.5 530.1C222.2 531.9 181.1 517.9 146.7 494.9C112.4 472 84.4 440.5 61.5 406Z" fill="white"/>
</mask>
<g mask="url(#mask41_0_7553)">
<path d="M229.9 287.2C230.5 287.2 231 287.1 231.6 287C242.3 285.5 252.8 289.7 259.4 298.2C260.6 299.7 261.6 301.3 262.4 303C262.7 303.7 262.8 304.3 262.3 304.9C261.9 305.4 261.3 305.6 260.6 305.5C260 305.4 259.7 305 259.4 304.5C256.1 298.1 251.1 293.6 244.2 291.3C239.3 289.6 234.2 289.5 229.2 290.8C227.2 291.3 225.2 291.9 223.4 292.7C221.2 293.7 219.5 295.2 218 297C217.6 297.4 217.2 297.7 216.7 297.7C216 297.7 215.5 297.4 215.2 296.8C214.9 296.2 214.9 295.6 215.4 295C217.2 292.8 219.3 291 221.8 289.8C222.6 289.4 223.4 289.1 224.2 288.8C224.3 288.8 224.4 288.8 224.5 288.6C226.2 288.3 228.1 287.8 229.9 287.2Z" fill="url(#paint0_linear_0_7553)"/>
</g>
<mask id="mask42_0_7553" style="mask-type:luminance" maskUnits="userSpaceOnUse" x="30" y="41" width="467" height="490">
<path d="M61.5 406C32.3 356 20.3001 307.4 39.4001 252.7C49.9001 222.6 99.3001 77.9999 128.8 65.8999C158.2 53.6999 187.3 33.0999 216 46.9999C227.1 52.3999 242.2 49.1999 257 45.9999C268 43.5999 278.9 41.2999 287.9 42.3999C308.2 44.8999 323.8 47.4999 343.5 42.0999C402 26.1999 438.9 209 476.3 256.7C484.9 267.7 492.1 280.1 495 293.7C501.7 324.8 485.2 355.9 467.9 382.6C444.1 419.2 417 454.3 382.9 481.6C348.8 508.9 307.2 528.3 263.5 530.1C222.2 531.9 181.1 517.9 146.7 494.9C112.4 472 84.4 440.5 61.5 406Z" fill="white"/>
</mask>
<g mask="url(#mask42_0_7553)">
<path d="M265.3 311.6C265.2 311.7 265.3 311.8 265.3 311.9C266 314.9 266.4 317.8 266.7 320.9C266.8 321.9 266.2 322.7 265.2 322.8C264.3 322.9 263.5 322.2 263.4 321.3C263 317.3 262.3 313.3 261.2 309.4C260.9 308.5 261.3 307.7 262.1 307.3C262.9 306.9 263.7 307.2 264.3 308H264.4C264.6 309.1 265 310.4 265.3 311.6Z" fill="url(#paint1_linear_0_7553)"/>
</g>
<mask id="mask43_0_7553" style="mask-type:luminance" maskUnits="userSpaceOnUse" x="30" y="41" width="467" height="490">
<path d="M61.5 406C32.3 356 20.3001 307.4 39.4001 252.7C49.9001 222.6 99.3001 77.9999 128.8 65.8999C158.2 53.6999 187.3 33.0999 216 46.9999C227.1 52.3999 242.2 49.1999 257 45.9999C268 43.5999 278.9 41.2999 287.9 42.3999C308.2 44.8999 323.8 47.4999 343.5 42.0999C402 26.1999 438.9 209 476.3 256.7C484.9 267.7 492.1 280.1 495 293.7C501.7 324.8 485.2 355.9 467.9 382.6C444.1 419.2 417 454.3 382.9 481.6C348.8 508.9 307.2 528.3 263.5 530.1C222.2 531.9 181.1 517.9 146.7 494.9C112.4 472 84.4 440.5 61.5 406Z" fill="white"/>
</mask>
<g mask="url(#mask43_0_7553)">
<path d="M236.3 303.4C235.1 303.4 233.9 303.6 232.6 303.9C227.3 305.3 224.3 309 223.3 314.4C223 315.9 223.1 317.5 223.4 318.9C224.3 317.6 225.3 316.5 226.5 315.6C226.8 310.6 231.1 306.8 235.9 306.8C236.9 306.8 237.9 307 238.9 307.3C240.7 307.9 242.1 308.9 243.3 310.4C243.7 310.8 244.1 311.1 244.6 311.1C244.7 311.1 244.8 311.1 245 311.1C246.3 310.8 246.8 309.4 245.9 308.4C243.2 305.1 240 303.4 236.3 303.4Z" fill="url(#paint2_linear_0_7553)"/>
</g>
<mask id="mask44_0_7553" style="mask-type:luminance" maskUnits="userSpaceOnUse" x="30" y="41" width="467" height="490">
<path d="M61.5 406C32.3 356 20.3001 307.4 39.4001 252.7C49.9001 222.6 99.3001 77.9999 128.8 65.8999C158.2 53.6999 187.3 33.0999 216 46.9999C227.1 52.3999 242.2 49.1999 257 45.9999C268 43.5999 278.9 41.2999 287.9 42.3999C308.2 44.8999 323.8 47.4999 343.5 42.0999C402 26.1999 438.9 209 476.3 256.7C484.9 267.7 492.1 280.1 495 293.7C501.7 324.8 485.2 355.9 467.9 382.6C444.1 419.2 417 454.3 382.9 481.6C348.8 508.9 307.2 528.3 263.5 530.1C222.2 531.9 181.1 517.9 146.7 494.9C112.4 472 84.4 440.5 61.5 406Z" fill="white"/>
</mask>
<g mask="url(#mask44_0_7553)">
<path d="M242.6 294.1C243 295.3 241.9 296.5 240.6 296.2C239.2 295.9 237.7 295.7 236.3 295.7C224.1 295.5 214.5 305.8 215.4 318C215.5 319 215 319.7 214.2 319.9C213.5 320.1 212.7 319.8 212.3 319.1C212.1 318.8 212.1 318.4 212.1 318.1C211.3 308.3 216.9 298.7 226 294.6C230.9 292.4 236 291.8 241.3 293C242 293 242.4 293.4 242.6 294.1Z" fill="url(#paint3_linear_0_7553)"/>
</g>
<mask id="mask45_0_7553" style="mask-type:luminance" maskUnits="userSpaceOnUse" x="30" y="41" width="467" height="490">
<path d="M61.5 406C32.3 356 20.3001 307.4 39.4001 252.7C49.9001 222.6 99.3001 77.9999 128.8 65.8999C158.2 53.6999 187.3 33.0999 216 46.9999C227.1 52.3999 242.2 49.1999 257 45.9999C268 43.5999 278.9 41.2999 287.9 42.3999C308.2 44.8999 323.8 47.4999 343.5 42.0999C402 26.1999 438.9 209 476.3 256.7C484.9 267.7 492.1 280.1 495 293.7C501.7 324.8 485.2 355.9 467.9 382.6C444.1 419.2 417 454.3 382.9 481.6C348.8 508.9 307.2 528.3 263.5 530.1C222.2 531.9 181.1 517.9 146.7 494.9C112.4 472 84.4 440.5 61.5 406Z" fill="white"/>
</mask>
<g mask="url(#mask45_0_7553)">
<path d="M246.9 295.1C246.5 295.1 246.1 295.3 245.8 295.5C245.3 296 245.1 296.8 245.4 297.5C245.6 297.9 245.9 298.1 246.3 298.3C250.9 301 254.1 305 255.6 310.1C257.1 315 257.8 320 258.1 325.1C258.2 326.3 258.2 327.6 258.2 328.8C259.2 330.6 260.2 332.6 261.1 334.7C261.2 334.5 261.3 334.2 261.3 333.9C261.9 326.2 261.3 318.7 259.4 311.2C258.9 308.9 258.1 306.7 256.9 304.6C254.7 300.7 251.7 297.6 247.8 295.4C247.5 295.2 247.2 295.1 246.9 295.1Z" fill="url(#paint4_linear_0_7553)"/>
</g>
<mask id="mask46_0_7553" style="mask-type:luminance" maskUnits="userSpaceOnUse" x="30" y="41" width="467" height="490">
<path d="M61.5 406C32.3 356 20.3001 307.4 39.4001 252.7C49.9001 222.6 99.3001 77.9999 128.8 65.8999C158.2 53.6999 187.3 33.0999 216 46.9999C227.1 52.3999 242.2 49.1999 257 45.9999C268 43.5999 278.9 41.2999 287.9 42.3999C308.2 44.8999 323.8 47.4999 343.5 42.0999C402 26.1999 438.9 209 476.3 256.7C484.9 267.7 492.1 280.1 495 293.7C501.7 324.8 485.2 355.9 467.9 382.6C444.1 419.2 417 454.3 382.9 481.6C348.8 508.9 307.2 528.3 263.5 530.1C222.2 531.9 181.1 517.9 146.7 494.9C112.4 472 84.4 440.5 61.5 406Z" fill="white"/>
</mask>
<g mask="url(#mask46_0_7553)">
<path d="M236 309C235.2 309 234.3 309.1 233.4 309.4C231.3 310.1 229.7 311.9 229 314C230.6 313.3 232.4 312.8 234.5 312.5C234.6 312.5 234.7 312.5 234.8 312.4C235 312.3 235.2 312.3 235.4 312.3C236.3 312.1 237.2 312.1 238.1 312.1C239.5 312.1 240.8 312.3 242.1 312.7C240.9 310.4 238.6 309 236 309Z" fill="url(#paint5_linear_0_7553)"/>
</g>
<mask id="mask47_0_7553" style="mask-type:luminance" maskUnits="userSpaceOnUse" x="30" y="41" width="467" height="490">
<path d="M61.5 406C32.3 356 20.3001 307.4 39.4001 252.7C49.9001 222.6 99.3001 77.9999 128.8 65.8999C158.2 53.6999 187.3 33.0999 216 46.9999C227.1 52.3999 242.2 49.1999 257 45.9999C268 43.5999 278.9 41.2999 287.9 42.3999C308.2 44.8999 323.8 47.4999 343.5 42.0999C402 26.1999 438.9 209 476.3 256.7C484.9 267.7 492.1 280.1 495 293.7C501.7 324.8 485.2 355.9 467.9 382.6C444.1 419.2 417 454.3 382.9 481.6C348.8 508.9 307.2 528.3 263.5 530.1C222.2 531.9 181.1 517.9 146.7 494.9C112.4 472 84.4 440.5 61.5 406Z" fill="white"/>
</mask>
<g mask="url(#mask47_0_7553)">
<path d="M226.1 301C225.7 301 225.4 301.1 225 301.4C218.9 305.9 216.2 313.7 218.2 321C219 323.8 219.3 326.6 219.1 329.5C219.1 329.7 219.1 330 219.1 330.2C219.2 330.3 219.2 330.5 219.3 330.6C219.4 330.8 219.6 331 219.8 331.1C220.1 327.5 220.7 324.3 221.8 321.7C221.7 321.1 221.5 320.6 221.4 320C220.6 316.9 220.7 313.9 221.8 311C222.8 308.2 224.6 305.8 227 304C227.4 303.7 227.7 303.3 227.8 302.8C227.9 302.1 227.6 301.5 227 301.2C226.6 301.1 226.4 301 226.1 301Z" fill="url(#paint6_linear_0_7553)"/>
</g>
<mask id="mask48_0_7553" style="mask-type:luminance" maskUnits="userSpaceOnUse" x="30" y="41" width="467" height="490">
<path d="M61.5 406C32.3 356 20.3001 307.4 39.4001 252.7C49.9001 222.6 99.3001 77.9999 128.8 65.8999C158.2 53.6999 187.3 33.0999 216 46.9999C227.1 52.3999 242.2 49.1999 257 45.9999C268 43.5999 278.9 41.2999 287.9 42.3999C308.2 44.8999 323.8 47.4999 343.5 42.0999C402 26.1999 438.9 209 476.3 256.7C484.9 267.7 492.1 280.1 495 293.7C501.7 324.8 485.2 355.9 467.9 382.6C444.1 419.2 417 454.3 382.9 481.6C348.8 508.9 307.2 528.3 263.5 530.1C222.2 531.9 181.1 517.9 146.7 494.9C112.4 472 84.4 440.5 61.5 406Z" fill="white"/>
</mask>
<g mask="url(#mask48_0_7553)">
<path d="M253.7 311.8C253.9 312.4 254.1 313.1 254.2 313.7C254.4 314.6 253.9 315.5 253 315.8C252.1 316 251.2 315.5 250.9 314.5C250.7 313.7 250.5 312.9 250.3 312.1C248.3 305 241.2 300.3 233.9 301.3C233.2 301.4 232.6 301.5 231.9 301.7C230.9 302 230 301.5 229.7 300.6C229.4 299.7 230 298.8 231 298.5C238.9 296.3 247.4 299.8 251.6 306.8C252.1 307.6 252.5 308.4 252.8 309.2C253.3 310.1 253.6 310.9 253.7 311.8Z" fill="url(#paint7_linear_0_7553)"/>
</g>
<mask id="mask49_0_7553" style="mask-type:luminance" maskUnits="userSpaceOnUse" x="30" y="41" width="467" height="490">
<path d="M61.5 406C32.3 356 20.3001 307.4 39.4001 252.7C49.9001 222.6 99.3001 77.9999 128.8 65.8999C158.2 53.6999 187.3 33.0999 216 46.9999C227.1 52.3999 242.2 49.1999 257 45.9999C268 43.5999 278.9 41.2999 287.9 42.3999C308.2 44.8999 323.8 47.4999 343.5 42.0999C402 26.1999 438.9 209 476.3 256.7C484.9 267.7 492.1 280.1 495 293.7C501.7 324.8 485.2 355.9 467.9 382.6C444.1 419.2 417 454.3 382.9 481.6C348.8 508.9 307.2 528.3 263.5 530.1C222.2 531.9 181.1 517.9 146.7 494.9C112.4 472 84.4 440.5 61.5 406Z" fill="white"/>
</mask>
<g mask="url(#mask49_0_7553)">
<path d="M211.3 300.9C211.9 300.8 212.5 300.9 212.9 301.5C213.4 302.1 213.4 302.7 213.1 303.4C212.4 304.7 211.8 306 211.3 307.4C209.4 312.6 209.2 317.9 210.7 323.2C211.3 325.3 211.5 327.5 211.4 329.7C211.3 330.6 210.7 331.2 209.8 331.3C209 331.4 208.3 330.8 208.1 330C208.1 329.9 208 329.7 208.1 329.5C208.3 327.5 208 325.5 207.5 323.6C205.6 316 206.5 308.7 210.3 301.9C210.4 301.4 210.7 301.1 211.3 300.9Z" fill="url(#paint8_linear_0_7553)"/>
</g>
<mask id="mask50_0_7553" style="mask-type:luminance" maskUnits="userSpaceOnUse" x="30" y="41" width="467" height="490">
<path d="M61.5 406C32.3 356 20.3001 307.4 39.4001 252.7C49.9001 222.6 99.3001 77.9999 128.8 65.8999C158.2 53.6999 187.3 33.0999 216 46.9999C227.1 52.3999 242.2 49.1999 257 45.9999C268 43.5999 278.9 41.2999 287.9 42.3999C308.2 44.8999 323.8 47.4999 343.5 42.0999C402 26.1999 438.9 209 476.3 256.7C484.9 267.7 492.1 280.1 495 293.7C501.7 324.8 485.2 355.9 467.9 382.6C444.1 419.2 417 454.3 382.9 481.6C348.8 508.9 307.2 528.3 263.5 530.1C222.2 531.9 181.1 517.9 146.7 494.9C112.4 472 84.4 440.5 61.5 406Z" fill="white"/>
</mask>
<g mask="url(#mask50_0_7553)">
<path d="M247.5 315C247.4 315 247.3 315 247.1 315C247.8 315.5 248.5 316 249.2 316.6V316.5C249 315.6 248.3 315 247.5 315Z" fill="url(#paint9_linear_0_7553)"/>
</g>
<mask id="mask51_0_7553" style="mask-type:luminance" maskUnits="userSpaceOnUse" x="30" y="41" width="467" height="490">
<path d="M61.5 406C32.3 356 20.3001 307.4 39.4001 252.7C49.9001 222.6 99.3001 77.9999 128.8 65.8999C158.2 53.6999 187.3 33.0999 216 46.9999C227.1 52.3999 242.2 49.1999 257 45.9999C268 43.5999 278.9 41.2999 287.9 42.3999C308.2 44.8999 323.8 47.4999 343.5 42.0999C402 26.1999 438.9 209 476.3 256.7C484.9 267.7 492.1 280.1 495 293.7C501.7 324.8 485.2 355.9 467.9 382.6C444.1 419.2 417 454.3 382.9 481.6C348.8 508.9 307.2 528.3 263.5 530.1C222.2 531.9 181.1 517.9 146.7 494.9C112.4 472 84.4 440.5 61.5 406Z" fill="white"/>
</mask>
<g mask="url(#mask51_0_7553)">
<path d="M254 319.9C253.9 319.9 253.9 319.9 253.8 319.9C253.4 319.9 253 320.1 252.8 320.4C253.9 321.7 254.9 323.2 255.9 324.8C255.8 323.7 255.8 322.6 255.6 321.5C255.5 320.6 254.8 319.9 254 319.9Z" fill="url(#paint10_linear_0_7553)"/>
</g>
<mask id="mask52_0_7553" style="mask-type:luminance" maskUnits="userSpaceOnUse" x="30" y="41" width="467" height="490">
<path d="M61.5 406C32.3 356 20.3001 307.4 39.4001 252.7C49.9001 222.6 99.3001 77.9999 128.8 65.8999C158.2 53.6999 187.3 33.0999 216 46.9999C227.1 52.3999 242.2 49.1999 257 45.9999C268 43.5999 278.9 41.2999 287.9 42.3999C308.2 44.8999 323.8 47.4999 343.5 42.0999C402 26.1999 438.9 209 476.3 256.7C484.9 267.7 492.1 280.1 495 293.7C501.7 324.8 485.2 355.9 467.9 382.6C444.1 419.2 417 454.3 382.9 481.6C348.8 508.9 307.2 528.3 263.5 530.1C222.2 531.9 181.1 517.9 146.7 494.9C112.4 472 84.4 440.5 61.5 406Z" fill="white"/>
</mask>
<g mask="url(#mask52_0_7553)">
<path d="M216.8 325.3C217 326.4 217 327.6 217 328.8C216.9 331.4 216.5 333.9 215.6 336.4C215.4 337.1 214.9 337.5 214.2 337.6C213.5 337.7 212.9 337.4 212.6 336.8C212.3 336.3 212.3 335.8 212.5 335.3C213.5 332.6 213.9 329.8 213.7 326.9C213.7 326.5 213.6 326.1 213.6 325.8C213.6 324.9 214.2 324.2 215 324.1C215.7 323.9 216.5 324.4 216.8 325.3Z" fill="url(#paint11_linear_0_7553)"/>
</g>
<mask id="mask53_0_7553" style="mask-type:luminance" maskUnits="userSpaceOnUse" x="30" y="41" width="467" height="490">
<path d="M61.5 406C32.3 356 20.3001 307.4 39.4001 252.7C49.9001 222.6 99.3001 77.9999 128.8 65.8999C158.2 53.6999 187.3 33.0999 216 46.9999C227.1 52.3999 242.2 49.1999 257 45.9999C268 43.5999 278.9 41.2999 287.9 42.3999C308.2 44.8999 323.8 47.4999 343.5 42.0999C402 26.1999 438.9 209 476.3 256.7C484.9 267.7 492.1 280.1 495 293.7C501.7 324.8 485.2 355.9 467.9 382.6C444.1 419.2 417 454.3 382.9 481.6C348.8 508.9 307.2 528.3 263.5 530.1C222.2 531.9 181.1 517.9 146.7 494.9C112.4 472 84.4 440.5 61.5 406Z" fill="white"/>
</mask>
<g mask="url(#mask53_0_7553)">
<path d="M219.7 334C219 334.1 218.5 334.5 218.3 335.2C217.9 336.6 217.4 337.9 216.8 339.2C216.4 340.1 216.8 341.1 217.6 341.5C217.8 341.6 218.1 341.6 218.3 341.6C218.9 341.6 219.5 341.2 219.8 340.6C219.7 338.2 219.6 336 219.7 334Z" fill="url(#paint12_linear_0_7553)"/>
</g>
<mask id="mask54_0_7553" style="mask-type:luminance" maskUnits="userSpaceOnUse" x="30" y="41" width="467" height="490">
<path d="M61.5 406C32.3 356 20.3001 307.4 39.4001 252.7C49.9001 222.6 99.3001 77.9999 128.8 65.8999C158.2 53.6999 187.3 33.0999 216 46.9999C227.1 52.3999 242.2 49.1999 257 45.9999C268 43.5999 278.9 41.2999 287.9 42.3999C308.2 44.8999 323.8 47.4999 343.5 42.0999C402 26.1999 438.9 209 476.3 256.7C484.9 267.7 492.1 280.1 495 293.7C501.7 324.8 485.2 355.9 467.9 382.6C444.1 419.2 417 454.3 382.9 481.6C348.8 508.9 307.2 528.3 263.5 530.1C222.2 531.9 181.1 517.9 146.7 494.9C112.4 472 84.4 440.5 61.5 406Z" fill="white"/>
</mask>
<g mask="url(#mask54_0_7553)">
<path d="M369.5 358.5C367.9 358.5 366.3 358.7 364.6 359.1C359.1 370.2 351.3 380.5 341.9 389.5C341.2 397.5 339.5 402.7 337 404.1C308.4 430.7 254.8 445 209.2 445.1C207 450.9 205.9 457.5 206 464.6C206.3 486.2 218.5 504 233.3 504.8C240.5 513.9 249.3 522.3 259.1 530.3C260.6 530.3 262.1 530.2 263.7 530.2C307.3 528.3 349 509 383.1 481.7C393.2 473.6 402.7 464.8 411.6 455.5C412.5 449.6 413.2 443.5 413.5 437.1C415.1 434.1 416.4 430.8 417.3 427.2C421.9 409 414.5 391.2 400.8 387.3C399 386.8 397.2 386.6 395.5 386.6C394.9 386.6 394.2 386.6 393.6 386.7C392.1 373.1 385.2 362.2 374.9 359.3C373.1 358.7 371.3 358.5 369.5 358.5Z" fill="#66B8C1"/>
</g>
<mask id="mask55_0_7553" style="mask-type:luminance" maskUnits="userSpaceOnUse" x="30" y="41" width="467" height="490">
<path d="M61.5 406C32.3 356 20.3001 307.4 39.4001 252.7C49.9001 222.6 99.3001 77.9999 128.8 65.8999C158.2 53.6999 187.3 33.0999 216 46.9999C227.1 52.3999 242.2 49.1999 257 45.9999C268 43.5999 278.9 41.2999 287.9 42.3999C308.2 44.8999 323.8 47.4999 343.5 42.0999C402 26.1999 438.9 209 476.3 256.7C484.9 267.7 492.1 280.1 495 293.7C501.7 324.8 485.2 355.9 467.9 382.6C444.1 419.2 417 454.3 382.9 481.6C348.8 508.9 307.2 528.3 263.5 530.1C222.2 531.9 181.1 517.9 146.7 494.9C112.4 472 84.4 440.5 61.5 406Z" fill="white"/>
</mask>
<g mask="url(#mask55_0_7553)">
<path d="M347.7 352.1C347.8 364 346.3 376.6 342.2 389.3C342.3 387.2 342.3 385 342.3 382.8C342.2 385.2 342.1 387.5 341.9 389.5C351.3 380.5 359.1 370.2 364.6 359.1C362.2 359.7 359.7 360.7 357.4 362C355 357.6 351.6 354.2 347.7 352.1ZM340.2 349.8C340.4 351.5 340.6 353.2 340.8 354.9C341.4 359.8 341.8 364.4 342 368.7C341.7 362.5 341.2 356.2 340.6 349.8C340.4 349.8 340.3 349.8 340.2 349.8Z" fill="#DEACA2"/>
</g>
<mask id="mask56_0_7553" style="mask-type:luminance" maskUnits="userSpaceOnUse" x="30" y="41" width="467" height="490">
<path d="M61.5 406C32.3 356 20.3001 307.4 39.4001 252.7C49.9001 222.6 99.3001 77.9999 128.8 65.8999C158.2 53.6999 187.3 33.0999 216 46.9999C227.1 52.3999 242.2 49.1999 257 45.9999C268 43.5999 278.9 41.2999 287.9 42.3999C308.2 44.8999 323.8 47.4999 343.5 42.0999C402 26.1999 438.9 209 476.3 256.7C484.9 267.7 492.1 280.1 495 293.7C501.7 324.8 485.2 355.9 467.9 382.6C444.1 419.2 417 454.3 382.9 481.6C348.8 508.9 307.2 528.3 263.5 530.1C222.2 531.9 181.1 517.9 146.7 494.9C112.4 472 84.4 440.5 61.5 406Z" fill="white"/>
</mask>
<g mask="url(#mask56_0_7553)">
<path d="M338.3 349.7C335.9 349.7 333.5 350.1 331.2 350.9C332.7 370.4 331 384.2 326.8 386.4C305 406.2 267.7 418.6 231.7 422.5C231.8 423.3 231.9 424.1 232 424.9C222.1 425.3 213.7 433.3 209.3 445C254.9 445 308.4 430.7 337.1 404C339.6 402.7 341.3 397.4 342 389.4C342.2 387.3 342.3 385.1 342.4 382.7C342.4 378.1 342.3 373.4 342.1 368.7C341.8 364.4 341.4 359.7 340.9 354.9C340.7 353.2 340.5 351.5 340.3 349.8C339.5 349.7 338.9 349.7 338.3 349.7Z" fill="#000605"/>
</g>
<mask id="mask57_0_7553" style="mask-type:luminance" maskUnits="userSpaceOnUse" x="30" y="41" width="467" height="490">
<path d="M61.5 406C32.3 356 20.3001 307.4 39.4001 252.7C49.9001 222.6 99.3001 77.9999 128.8 65.8999C158.2 53.6999 187.3 33.0999 216 46.9999C227.1 52.3999 242.2 49.1999 257 45.9999C268 43.5999 278.9 41.2999 287.9 42.3999C308.2 44.8999 323.8 47.4999 343.5 42.0999C402 26.1999 438.9 209 476.3 256.7C484.9 267.7 492.1 280.1 495 293.7C501.7 324.8 485.2 355.9 467.9 382.6C444.1 419.2 417 454.3 382.9 481.6C348.8 508.9 307.2 528.3 263.5 530.1C222.2 531.9 181.1 517.9 146.7 494.9C112.4 472 84.4 440.5 61.5 406Z" fill="white"/>
</mask>
<g mask="url(#mask57_0_7553)">
<path d="M228.3 346.4C227.9 346.4 227.5 346.2 227.1 345.9C226.6 345.4 226.5 344.8 226.8 344.2C227.5 342.7 228 341.2 228.6 339.7C228.8 339 229.5 338.7 230.1 338.7C230.3 338.7 230.5 338.7 230.7 338.8C231.5 339.1 232 340 231.8 340.8C231.3 342.5 230.6 344.1 229.9 345.6C229.7 346 229.3 346.3 228.8 346.4C228.5 346.4 228.4 346.4 228.3 346.4ZM240.1 347.1H240C239.3 347.1 238.7 346.6 238.5 345.8C238.4 345.5 238.4 345.1 238.6 344.8C239.6 342 240.4 339.2 241.1 336.3C241.3 335.5 242 335 242.7 335C242.8 335 243 335 243.1 335C244 335.2 244.6 336.1 244.3 337C243.6 340 242.7 343 241.7 345.9C241.4 346.7 240.8 347.1 240.1 347.1ZM231.1 337.8C230.1 337.8 229.3 336.9 229.5 335.8C229.7 334.5 230 333.2 230.1 331.9C230.4 329.4 230.3 326.9 230.1 324.4C230 323.4 230.7 322.6 231.6 322.5C231.7 322.5 231.7 322.5 231.8 322.5C232.7 322.5 233.4 323.2 233.5 324.1C233.9 328.2 233.7 332.3 232.9 336.3C232.7 337 232.3 337.5 231.6 337.7C231.4 337.8 231.3 337.8 231.1 337.8ZM234 347.4C233.8 347.4 233.6 347.4 233.4 347.3C232.5 346.9 232.1 346 232.5 345C235.2 338.5 236.3 331.7 235.7 324.6C235.5 322 235 319.4 234.3 316.9C234 315.8 234.5 314.9 235.5 314.7C235.6 314.7 235.8 314.6 235.9 314.6C236.6 314.6 237.2 315 237.5 315.8C237.7 316.3 237.8 316.9 237.9 317.3C240.2 327.3 239.5 337 235.6 346.3C235.3 346.9 234.7 347.4 234 347.4ZM235.9 312.3C235.8 312.3 235.6 312.3 235.5 312.3C235.3 312.3 235.1 312.4 234.9 312.4C232.9 313 231.7 315 232.2 317.1C232.5 318.1 232 319 231 319.3C230.9 319.3 230.7 319.4 230.6 319.4C229.8 319.4 229.2 318.9 229 318C228.7 316.7 228.7 315.3 229.1 314C228.2 314.4 227.3 314.9 226.5 315.5C226.5 316.1 226.5 316.8 226.6 317.5C226.7 318.5 227.1 319.5 227.3 320.5C229 328.5 228.1 336.1 224.7 343.5C224.4 344.2 223.8 344.5 223.2 344.5C223 344.5 222.7 344.4 222.5 344.3C221.6 343.9 221.3 342.9 221.8 342C224 337.4 225 332.6 224.9 327.5C224.9 325.3 224.5 322.7 223.9 320.4C223.8 319.9 223.6 319.5 223.5 319C222.9 319.9 222.4 320.9 222 322C222.6 324.6 222.8 327.3 222.6 330C222.6 330.8 222.1 331.4 221.3 331.6C221.2 331.6 221 331.6 220.9 331.6C220.6 331.6 220.2 331.5 219.9 331.3C219.8 332.2 219.8 333.1 219.8 334C219.9 334 219.9 334 220 334C220 334 220 334 220.1 334C220.8 334 221.4 334.5 221.6 335.3C221.7 335.6 221.7 335.9 221.6 336.2C221.2 337.7 220.6 339.2 220 340.6C221.1 360.7 228.2 389.8 231.9 422.5C267.9 418.6 305.2 406.3 327 386.4C331.2 384.2 332.9 370.4 331.4 350.9C329.3 351.6 327.3 352.6 325.3 353.9C322.2 345.4 316.5 339.1 309.1 337C307.3 336.5 305.5 336.3 303.7 336.3C291.2 336.3 278.5 348 272.9 365.3C269.1 354.1 265.4 343.5 261.4 334.7C261.2 335.1 261 335.3 260.5 335.5C260.3 335.6 260.1 335.6 259.9 335.6C259.6 335.6 259.2 335.5 258.9 335.2C258.4 334.8 258.2 334.3 258.2 333.6C258.3 332 258.4 330.4 258.4 328.8C257.6 327.4 256.9 326.1 256.1 324.8C256.4 330 256 335.2 255 340.4C254.9 341.1 254.5 341.6 253.9 341.8C253.7 341.9 253.5 341.9 253.3 341.9C252.2 341.9 251.4 341 251.6 339.9C252 337.9 252.3 336 252.5 334C252.9 330 252.9 325.9 252.5 321.9C252.4 321.3 252.6 320.8 253 320.4C251.9 319 250.7 317.7 249.5 316.6C250.8 322.9 251 329.4 250.1 335.9C249.7 338.7 249.1 341.4 248.3 344.1C248.1 344.9 247.5 345.4 246.7 345.4H246.6C245.8 345.4 245.2 344.8 245 344C244.9 343.7 245 343.4 245.1 343C246.7 337.4 247.4 331.7 247.2 325.9C247.1 322.9 246.7 320 246.1 317.1C245.9 316 246.3 315.2 247.2 314.9C247.3 314.9 247.3 314.9 247.4 314.9C245.8 313.8 244.2 313 242.5 312.5C242.6 312.7 242.7 312.9 242.8 313.1C243.2 313.9 243.3 314.8 243.6 315.6C244.7 320.3 245.2 325 245.1 329.7C245.1 330.7 244.4 331.4 243.4 331.4C242.4 331.4 241.7 330.6 241.8 329.6C241.9 326.3 241.7 323 241.1 319.8C240.8 318.2 240.5 316.5 240 315C239.1 313.4 237.6 312.3 235.9 312.3Z" fill="#E2DCDC"/>
</g>
<mask id="mask58_0_7553" style="mask-type:luminance" maskUnits="userSpaceOnUse" x="30" y="41" width="467" height="490">
<path d="M61.5 406C32.3 356 20.3001 307.4 39.4001 252.7C49.9001 222.6 99.3001 77.9999 128.8 65.8999C158.2 53.6999 187.3 33.0999 216 46.9999C227.1 52.3999 242.2 49.1999 257 45.9999C268 43.5999 278.9 41.2999 287.9 42.3999C308.2 44.8999 323.8 47.4999 343.5 42.0999C402 26.1999 438.9 209 476.3 256.7C484.9 267.7 492.1 280.1 495 293.7C501.7 324.8 485.2 355.9 467.9 382.6C444.1 419.2 417 454.3 382.9 481.6C348.8 508.9 307.2 528.3 263.5 530.1C222.2 531.9 181.1 517.9 146.7 494.9C112.4 472 84.4 440.5 61.5 406Z" fill="white"/>
</mask>
<g mask="url(#mask58_0_7553)">
<path d="M340.5 349.8C341.1 356.2 341.6 362.5 341.9 368.7C342.2 373.8 342.3 378.5 342.2 382.7C342.2 384.9 342.1 387.1 342.1 389.2C346.2 376.5 347.7 363.8 347.6 352C346.3 351.3 345 350.8 343.6 350.4C342.6 350.2 341.6 350 340.5 349.8Z" fill="#C5948C"/>
</g>
<mask id="mask59_0_7553" style="mask-type:luminance" maskUnits="userSpaceOnUse" x="30" y="41" width="467" height="490">
<path d="M61.5 406C32.3 356 20.3001 307.4 39.4001 252.7C49.9001 222.6 99.3001 77.9999 128.8 65.8999C158.2 53.6999 187.3 33.0999 216 46.9999C227.1 52.3999 242.2 49.1999 257 45.9999C268 43.5999 278.9 41.2999 287.9 42.3999C308.2 44.8999 323.8 47.4999 343.5 42.0999C402 26.1999 438.9 209 476.3 256.7C484.9 267.7 492.1 280.1 495 293.7C501.7 324.8 485.2 355.9 467.9 382.6C444.1 419.2 417 454.3 382.9 481.6C348.8 508.9 307.2 528.3 263.5 530.1C222.2 531.9 181.1 517.9 146.7 494.9C112.4 472 84.4 440.5 61.5 406Z" fill="white"/>
</mask>
<g mask="url(#mask59_0_7553)">
<path d="M342 368.7C342.2 373.5 342.3 378.1 342.3 382.7C342.4 378.6 342.3 373.8 342 368.7Z" fill="#000504"/>
</g>
<mask id="mask60_0_7553" style="mask-type:luminance" maskUnits="userSpaceOnUse" x="30" y="41" width="467" height="490">
<path d="M61.5 406C32.3 356 20.3001 307.4 39.4001 252.7C49.9001 222.6 99.3001 77.9999 128.8 65.8999C158.2 53.6999 187.3 33.0999 216 46.9999C227.1 52.3999 242.2 49.1999 257 45.9999C268 43.5999 278.9 41.2999 287.9 42.3999C308.2 44.8999 323.8 47.4999 343.5 42.0999C402 26.1999 438.9 209 476.3 256.7C484.9 267.7 492.1 280.1 495 293.7C501.7 324.8 485.2 355.9 467.9 382.6C444.1 419.2 417 454.3 382.9 481.6C348.8 508.9 307.2 528.3 263.5 530.1C222.2 531.9 181.1 517.9 146.7 494.9C112.4 472 84.4 440.5 61.5 406Z" fill="white"/>
</mask>
<g mask="url(#mask60_0_7553)">
<path d="M226.5 315.5C225.3 316.4 224.3 317.5 223.4 318.8C223.5 319.3 223.6 319.8 223.8 320.2C224.4 322.5 224.7 325.1 224.8 327.3C224.9 332.4 223.9 337.2 221.7 341.8C221.3 342.7 221.6 343.7 222.4 344.1C222.6 344.2 222.9 344.3 223.1 344.3C223.7 344.3 224.3 343.9 224.6 343.3C228.1 335.9 229 328.3 227.2 320.3C227 319.3 226.7 318.4 226.5 317.3C226.4 316.9 226.4 316.2 226.5 315.5Z" fill="url(#paint13_linear_0_7553)"/>
</g>
<mask id="mask61_0_7553" style="mask-type:luminance" maskUnits="userSpaceOnUse" x="30" y="41" width="467" height="490">
<path d="M61.5 406C32.3 356 20.3001 307.4 39.4001 252.7C49.9001 222.6 99.3001 77.9999 128.8 65.8999C158.2 53.6999 187.3 33.0999 216 46.9999C227.1 52.3999 242.2 49.1999 257 45.9999C268 43.5999 278.9 41.2999 287.9 42.3999C308.2 44.8999 323.8 47.4999 343.5 42.0999C402 26.1999 438.9 209 476.3 256.7C484.9 267.7 492.1 280.1 495 293.7C501.7 324.8 485.2 355.9 467.9 382.6C444.1 419.2 417 454.3 382.9 481.6C348.8 508.9 307.2 528.3 263.5 530.1C222.2 531.9 181.1 517.9 146.7 494.9C112.4 472 84.4 440.5 61.5 406Z" fill="white"/>
</mask>
<g mask="url(#mask61_0_7553)">
<path d="M258.2 328.9C258.2 330.5 258.1 332.1 258 333.7C257.9 334.3 258.1 334.9 258.7 335.3C259 335.5 259.3 335.7 259.7 335.7C259.9 335.7 260.1 335.7 260.3 335.6C260.7 335.4 261 335.1 261.2 334.8C260.2 332.7 259.2 330.7 258.2 328.9Z" fill="url(#paint14_linear_0_7553)"/>
</g>
<mask id="mask62_0_7553" style="mask-type:luminance" maskUnits="userSpaceOnUse" x="30" y="41" width="467" height="490">
<path d="M61.5 406C32.3 356 20.3001 307.4 39.4001 252.7C49.9001 222.6 99.3001 77.9999 128.8 65.8999C158.2 53.6999 187.3 33.0999 216 46.9999C227.1 52.3999 242.2 49.1999 257 45.9999C268 43.5999 278.9 41.2999 287.9 42.3999C308.2 44.8999 323.8 47.4999 343.5 42.0999C402 26.1999 438.9 209 476.3 256.7C484.9 267.7 492.1 280.1 495 293.7C501.7 324.8 485.2 355.9 467.9 382.6C444.1 419.2 417 454.3 382.9 481.6C348.8 508.9 307.2 528.3 263.5 530.1C222.2 531.9 181.1 517.9 146.7 494.9C112.4 472 84.4 440.5 61.5 406Z" fill="white"/>
</mask>
<g mask="url(#mask62_0_7553)">
<path d="M234.9 312.5C234.8 312.5 234.7 312.5 234.6 312.6C232.5 312.8 230.7 313.3 229.1 314.1C228.7 315.4 228.6 316.7 229 318.1C229.2 319 229.9 319.5 230.6 319.5C230.7 319.5 230.9 319.5 231 319.4C232 319.2 232.4 318.3 232.2 317.2C231.6 315.1 232.8 313.1 234.9 312.5ZM238.2 312.1C237.3 312.1 236.4 312.2 235.5 312.3C235.6 312.3 235.8 312.3 235.9 312.3C237.6 312.3 239.1 313.4 239.6 315.1C240.1 316.7 240.4 318.3 240.7 319.9C241.3 323.1 241.5 326.4 241.4 329.7C241.4 330.7 242.1 331.5 243 331.5C243.9 331.5 244.6 330.8 244.7 329.8C244.9 325 244.4 320.4 243.2 315.7C243 314.9 242.8 314 242.4 313.2C242.3 313 242.2 312.8 242.1 312.6C241 312.3 239.6 312.1 238.2 312.1Z" fill="url(#paint15_linear_0_7553)"/>
</g>
<mask id="mask63_0_7553" style="mask-type:luminance" maskUnits="userSpaceOnUse" x="30" y="41" width="467" height="490">
<path d="M61.5 406C32.3 356 20.3001 307.4 39.4001 252.7C49.9001 222.6 99.3001 77.9999 128.8 65.8999C158.2 53.6999 187.3 33.0999 216 46.9999C227.1 52.3999 242.2 49.1999 257 45.9999C268 43.5999 278.9 41.2999 287.9 42.3999C308.2 44.8999 323.8 47.4999 343.5 42.0999C402 26.1999 438.9 209 476.3 256.7C484.9 267.7 492.1 280.1 495 293.7C501.7 324.8 485.2 355.9 467.9 382.6C444.1 419.2 417 454.3 382.9 481.6C348.8 508.9 307.2 528.3 263.5 530.1C222.2 531.9 181.1 517.9 146.7 494.9C112.4 472 84.4 440.5 61.5 406Z" fill="white"/>
</mask>
<g mask="url(#mask63_0_7553)">
<path d="M235.9 314.6C235.8 314.6 235.6 314.6 235.5 314.7C234.5 315 234.1 315.9 234.3 316.9C235 319.4 235.5 322 235.7 324.6C236.3 331.7 235.2 338.5 232.5 345C232.1 346 232.5 346.9 233.4 347.3C233.6 347.4 233.8 347.4 234 347.4C234.7 347.4 235.3 347 235.6 346.3C239.5 336.9 240.3 327.3 237.9 317.3C237.8 316.9 237.7 316.4 237.5 315.8C237.3 315 236.6 314.6 235.9 314.6Z" fill="url(#paint16_linear_0_7553)"/>
</g>
<mask id="mask64_0_7553" style="mask-type:luminance" maskUnits="userSpaceOnUse" x="30" y="41" width="467" height="490">
<path d="M61.5 406C32.3 356 20.3001 307.4 39.4001 252.7C49.9001 222.6 99.3001 77.9999 128.8 65.8999C158.2 53.6999 187.3 33.0999 216 46.9999C227.1 52.3999 242.2 49.1999 257 45.9999C268 43.5999 278.9 41.2999 287.9 42.3999C308.2 44.8999 323.8 47.4999 343.5 42.0999C402 26.1999 438.9 209 476.3 256.7C484.9 267.7 492.1 280.1 495 293.7C501.7 324.8 485.2 355.9 467.9 382.6C444.1 419.2 417 454.3 382.9 481.6C348.8 508.9 307.2 528.3 263.5 530.1C222.2 531.9 181.1 517.9 146.7 494.9C112.4 472 84.4 440.5 61.5 406Z" fill="white"/>
</mask>
<g mask="url(#mask64_0_7553)">
<path d="M221.8 321.8C220.7 324.4 220.1 327.6 219.8 331.2C220.1 331.4 220.4 331.5 220.8 331.5C220.9 331.5 221.1 331.5 221.2 331.5C222 331.3 222.4 330.7 222.5 329.9C222.6 327.2 222.4 324.5 221.8 321.8Z" fill="url(#paint17_linear_0_7553)"/>
</g>
<mask id="mask65_0_7553" style="mask-type:luminance" maskUnits="userSpaceOnUse" x="30" y="41" width="467" height="490">
<path d="M61.5 406C32.3 356 20.3001 307.4 39.4001 252.7C49.9001 222.6 99.3001 77.9999 128.8 65.8999C158.2 53.6999 187.3 33.0999 216 46.9999C227.1 52.3999 242.2 49.1999 257 45.9999C268 43.5999 278.9 41.2999 287.9 42.3999C308.2 44.8999 323.8 47.4999 343.5 42.0999C402 26.1999 438.9 209 476.3 256.7C484.9 267.7 492.1 280.1 495 293.7C501.7 324.8 485.2 355.9 467.9 382.6C444.1 419.2 417 454.3 382.9 481.6C348.8 508.9 307.2 528.3 263.5 530.1C222.2 531.9 181.1 517.9 146.7 494.9C112.4 472 84.4 440.5 61.5 406Z" fill="white"/>
</mask>
<g mask="url(#mask65_0_7553)">
<path d="M247.2 315.1C247.1 315.1 247.1 315.1 247 315.1C246.1 315.4 245.7 316.2 245.9 317.3C246.5 320.2 246.9 323.1 247 326.1C247.2 331.9 246.5 337.6 244.9 343.2C244.8 343.5 244.7 343.8 244.8 344.2C244.9 345 245.6 345.5 246.4 345.6H246.5C247.3 345.6 247.9 345.1 248.1 344.3C248.9 341.6 249.5 338.8 249.9 336.1C250.8 329.6 250.6 323.1 249.3 316.8C248.5 316.1 247.9 315.5 247.2 315.1Z" fill="url(#paint18_linear_0_7553)"/>
</g>
<mask id="mask66_0_7553" style="mask-type:luminance" maskUnits="userSpaceOnUse" x="30" y="41" width="467" height="490">
<path d="M61.5 406C32.3 356 20.3001 307.4 39.4001 252.7C49.9001 222.6 99.3001 77.9999 128.8 65.8999C158.2 53.6999 187.3 33.0999 216 46.9999C227.1 52.3999 242.2 49.1999 257 45.9999C268 43.5999 278.9 41.2999 287.9 42.3999C308.2 44.8999 323.8 47.4999 343.5 42.0999C402 26.1999 438.9 209 476.3 256.7C484.9 267.7 492.1 280.1 495 293.7C501.7 324.8 485.2 355.9 467.9 382.6C444.1 419.2 417 454.3 382.9 481.6C348.8 508.9 307.2 528.3 263.5 530.1C222.2 531.9 181.1 517.9 146.7 494.9C112.4 472 84.4 440.5 61.5 406Z" fill="white"/>
</mask>
<g mask="url(#mask66_0_7553)">
<path d="M252.7 320.4C252.4 320.8 252.2 321.3 252.2 321.9C252.6 325.9 252.6 330 252.2 334C252 336 251.7 337.9 251.3 339.9C251.1 341 251.9 341.9 253 341.9C253.2 341.9 253.4 341.9 253.6 341.8C254.1 341.6 254.5 341.1 254.7 340.4C255.7 335.2 256.1 330 255.8 324.8C254.9 323.3 253.8 321.8 252.7 320.4Z" fill="url(#paint19_linear_0_7553)"/>
</g>
<mask id="mask67_0_7553" style="mask-type:luminance" maskUnits="userSpaceOnUse" x="30" y="41" width="467" height="490">
<path d="M61.5 406C32.3 356 20.3001 307.4 39.4001 252.7C49.9001 222.6 99.3001 77.9999 128.8 65.8999C158.2 53.6999 187.3 33.0999 216 46.9999C227.1 52.3999 242.2 49.1999 257 45.9999C268 43.5999 278.9 41.2999 287.9 42.3999C308.2 44.8999 323.8 47.4999 343.5 42.0999C402 26.1999 438.9 209 476.3 256.7C484.9 267.7 492.1 280.1 495 293.7C501.7 324.8 485.2 355.9 467.9 382.6C444.1 419.2 417 454.3 382.9 481.6C348.8 508.9 307.2 528.3 263.5 530.1C222.2 531.9 181.1 517.9 146.7 494.9C112.4 472 84.4 440.5 61.5 406Z" fill="white"/>
</mask>
<g mask="url(#mask67_0_7553)">
<path d="M231.8 322.6C231.7 322.6 231.7 322.6 231.6 322.6C230.7 322.7 230 323.5 230.1 324.5C230.3 327 230.3 329.5 230.1 332C230 333.3 229.7 334.6 229.5 335.9C229.3 337 230.1 337.9 231.1 337.9C231.2 337.9 231.4 337.9 231.5 337.8C232.2 337.6 232.6 337.2 232.8 336.4C233.6 332.4 233.8 328.3 233.4 324.2C233.4 323.2 232.7 322.6 231.8 322.6Z" fill="url(#paint20_linear_0_7553)"/>
</g>
<mask id="mask68_0_7553" style="mask-type:luminance" maskUnits="userSpaceOnUse" x="30" y="41" width="467" height="490">
<path d="M61.5 406C32.3 356 20.3001 307.4 39.4001 252.7C49.9001 222.6 99.3001 77.9999 128.8 65.8999C158.2 53.6999 187.3 33.0999 216 46.9999C227.1 52.3999 242.2 49.1999 257 45.9999C268 43.5999 278.9 41.2999 287.9 42.3999C308.2 44.8999 323.8 47.4999 343.5 42.0999C402 26.1999 438.9 209 476.3 256.7C484.9 267.7 492.1 280.1 495 293.7C501.7 324.8 485.2 355.9 467.9 382.6C444.1 419.2 417 454.3 382.9 481.6C348.8 508.9 307.2 528.3 263.5 530.1C222.2 531.9 181.1 517.9 146.7 494.9C112.4 472 84.4 440.5 61.5 406Z" fill="white"/>
</mask>
<g mask="url(#mask68_0_7553)">
<path d="M242.6 335.1C241.8 335.1 241.2 335.6 241 336.4C240.3 339.3 239.5 342.1 238.5 344.9C238.4 345.3 238.3 345.6 238.4 345.9C238.6 346.7 239.2 347.1 239.9 347.2H240C240.7 347.2 241.3 346.8 241.6 346.1C242.6 343.2 243.5 340.2 244.2 337.2C244.4 336.3 243.9 335.4 243 335.2C242.9 335.1 242.8 335.1 242.6 335.1Z" fill="url(#paint21_linear_0_7553)"/>
</g>
<mask id="mask69_0_7553" style="mask-type:luminance" maskUnits="userSpaceOnUse" x="30" y="41" width="467" height="490">
<path d="M61.5 406C32.3 356 20.3001 307.4 39.4001 252.7C49.9001 222.6 99.3001 77.9999 128.8 65.8999C158.2 53.6999 187.3 33.0999 216 46.9999C227.1 52.3999 242.2 49.1999 257 45.9999C268 43.5999 278.9 41.2999 287.9 42.3999C308.2 44.8999 323.8 47.4999 343.5 42.0999C402 26.1999 438.9 209 476.3 256.7C484.9 267.7 492.1 280.1 495 293.7C501.7 324.8 485.2 355.9 467.9 382.6C444.1 419.2 417 454.3 382.9 481.6C348.8 508.9 307.2 528.3 263.5 530.1C222.2 531.9 181.1 517.9 146.7 494.9C112.4 472 84.4 440.5 61.5 406Z" fill="white"/>
</mask>
<g mask="url(#mask69_0_7553)">
<path d="M230.1 338.6C229.4 338.6 228.8 339 228.6 339.6C228.1 341.1 227.5 342.6 226.8 344.1C226.5 344.7 226.7 345.3 227.1 345.8C227.5 346.2 227.9 346.3 228.3 346.3C228.4 346.3 228.5 346.3 228.7 346.3C229.3 346.1 229.6 345.9 229.8 345.5C230.6 343.9 231.2 342.3 231.7 340.7C232 339.9 231.5 339 230.6 338.7C230.4 338.6 230.2 338.6 230.1 338.6Z" fill="url(#paint22_linear_0_7553)"/>
</g>
<mask id="mask70_0_7553" style="mask-type:luminance" maskUnits="userSpaceOnUse" x="30" y="41" width="467" height="490">
<path d="M61.5 406C32.3 356 20.3001 307.4 39.4001 252.7C49.9001 222.6 99.3001 77.9999 128.8 65.8999C158.2 53.6999 187.3 33.0999 216 46.9999C227.1 52.3999 242.2 49.1999 257 45.9999C268 43.5999 278.9 41.2999 287.9 42.3999C308.2 44.8999 323.8 47.4999 343.5 42.0999C402 26.1999 438.9 209 476.3 256.7C484.9 267.7 492.1 280.1 495 293.7C501.7 324.8 485.2 355.9 467.9 382.6C444.1 419.2 417 454.3 382.9 481.6C348.8 508.9 307.2 528.3 263.5 530.1C222.2 531.9 181.1 517.9 146.7 494.9C112.4 472 84.4 440.5 61.5 406Z" fill="white"/>
</mask>
<g mask="url(#mask70_0_7553)">
<path d="M219.8 333.9C219.7 333.9 219.7 333.9 219.6 333.9C219.5 336 219.6 338.2 219.7 340.5C220.4 339.1 220.9 337.6 221.3 336.1C221.4 335.8 221.4 335.5 221.3 335.2C221.2 334.5 220.6 334 219.8 333.9C219.9 333.9 219.9 333.9 219.8 333.9Z" fill="url(#paint23_linear_0_7553)"/>
</g>
<mask id="mask71_0_7553" style="mask-type:luminance" maskUnits="userSpaceOnUse" x="30" y="41" width="467" height="490">
<path d="M61.5 406C32.3 356 20.3001 307.4 39.4001 252.7C49.9001 222.6 99.3001 77.9999 128.8 65.8999C158.2 53.6999 187.3 33.0999 216 46.9999C227.1 52.3999 242.2 49.1999 257 45.9999C268 43.5999 278.9 41.2999 287.9 42.3999C308.2 44.8999 323.8 47.4999 343.5 42.0999C402 26.1999 438.9 209 476.3 256.7C484.9 267.7 492.1 280.1 495 293.7C501.7 324.8 485.2 355.9 467.9 382.6C444.1 419.2 417 454.3 382.9 481.6C348.8 508.9 307.2 528.3 263.5 530.1C222.2 531.9 181.1 517.9 146.7 494.9C112.4 472 84.4 440.5 61.5 406Z" fill="white"/>
</mask>
<g mask="url(#mask71_0_7553)">
<path d="M418.3 433.5C415.6 499 378.4 537.4 378.4 537.4L275.1 537.2C260.2 526.1 246.7 514.5 236.8 501.3L238.5 457C238.9 381.8 206.1 314.6 239.3 310.8C260.5 306 270.1 343 283 380.1" fill="#FFC3B9"/>
</g>
<mask id="mask72_0_7553" style="mask-type:luminance" maskUnits="userSpaceOnUse" x="30" y="41" width="467" height="490">
<path d="M61.5 406C32.3 356 20.3001 307.4 39.4001 252.7C49.9001 222.6 99.3001 77.9999 128.8 65.8999C158.2 53.6999 187.3 33.0999 216 46.9999C227.1 52.3999 242.2 49.1999 257 45.9999C268 43.5999 278.9 41.2999 287.9 42.3999C308.2 44.8999 323.8 47.4999 343.5 42.0999C402 26.1999 438.9 209 476.3 256.7C484.9 267.7 492.1 280.1 495 293.7C501.7 324.8 485.2 355.9 467.9 382.6C444.1 419.2 417 454.3 382.9 481.6C348.8 508.9 307.2 528.3 263.5 530.1C222.2 531.9 181.1 517.9 146.7 494.9C112.4 472 84.4 440.5 61.5 406Z" fill="white"/>
</mask>
<g mask="url(#mask72_0_7553)">
<path d="M276.2 537.7C294.1 565.9 331.5 574.2 359.7 556.2C387.9 538.3 396.2 500.9 378.2 472.7C360.3 444.5 322.9 436.2 294.7 454.2C266.5 472.1 258.2 509.5 276.2 537.7Z" fill="#FFC3B9"/>
</g>
<mask id="mask73_0_7553" style="mask-type:luminance" maskUnits="userSpaceOnUse" x="30" y="41" width="467" height="490">
<path d="M61.5 406C32.3 356 20.3001 307.4 39.4001 252.7C49.9001 222.6 99.3001 77.9999 128.8 65.8999C158.2 53.6999 187.3 33.0999 216 46.9999C227.1 52.3999 242.2 49.1999 257 45.9999C268 43.5999 278.9 41.2999 287.9 42.3999C308.2 44.8999 323.8 47.4999 343.5 42.0999C402 26.1999 438.9 209 476.3 256.7C484.9 267.7 492.1 280.1 495 293.7C501.7 324.8 485.2 355.9 467.9 382.6C444.1 419.2 417 454.3 382.9 481.6C348.8 508.9 307.2 528.3 263.5 530.1C222.2 531.9 181.1 517.9 146.7 494.9C112.4 472 84.4 440.5 61.5 406Z" fill="white"/>
</mask>
<g mask="url(#mask73_0_7553)">
<path d="M266 463.5C266.3 485.6 254.2 503.3 239 503.1C223.8 502.9 211.1 484.9 210.8 462.8C210.5 440.7 222.6 423 237.8 423.2C253 423.4 265.7 441.4 266 463.5Z" fill="#FFC3B9"/>
</g>
<mask id="mask74_0_7553" style="mask-type:luminance" maskUnits="userSpaceOnUse" x="30" y="41" width="467" height="490">
<path d="M61.5 406C32.3 356 20.3001 307.4 39.4001 252.7C49.9001 222.6 99.3001 77.9999 128.8 65.8999C158.2 53.6999 187.3 33.0999 216 46.9999C227.1 52.3999 242.2 49.1999 257 45.9999C268 43.5999 278.9 41.2999 287.9 42.3999C308.2 44.8999 323.8 47.4999 343.5 42.0999C402 26.1999 438.9 209 476.3 256.7C484.9 267.7 492.1 280.1 495 293.7C501.7 324.8 485.2 355.9 467.9 382.6C444.1 419.2 417 454.3 382.9 481.6C348.8 508.9 307.2 528.3 263.5 530.1C222.2 531.9 181.1 517.9 146.7 494.9C112.4 472 84.4 440.5 61.5 406Z" fill="white"/>
</mask>
<g mask="url(#mask74_0_7553)">
<path d="M264 469.2C263.9 469 263.9 468.8 263.9 468.6C265.2 449 249.2 427.9 249 427.7C248.5 427 248.6 426.1 249.3 425.6C250 425.1 250.9 425.3 251.4 425.9C251.6 426.1 255.7 431.5 259.6 439.5C263.3 446.9 267.5 458 266.8 468.9C266.7 469.7 266 470.3 265.2 470.2C264.7 470.1 264.3 469.7 264 469.2Z" fill="#F55776"/>
</g>
<mask id="mask75_0_7553" style="mask-type:luminance" maskUnits="userSpaceOnUse" x="30" y="41" width="467" height="490">
<path d="M61.5 406C32.3 356 20.3001 307.4 39.4001 252.7C49.9001 222.6 99.3001 77.9999 128.8 65.8999C158.2 53.6999 187.3 33.0999 216 46.9999C227.1 52.3999 242.2 49.1999 257 45.9999C268 43.5999 278.9 41.2999 287.9 42.3999C308.2 44.8999 323.8 47.4999 343.5 42.0999C402 26.1999 438.9 209 476.3 256.7C484.9 267.7 492.1 280.1 495 293.7C501.7 324.8 485.2 355.9 467.9 382.6C444.1 419.2 417 454.3 382.9 481.6C348.8 508.9 307.2 528.3 263.5 530.1C222.2 531.9 181.1 517.9 146.7 494.9C112.4 472 84.4 440.5 61.5 406Z" fill="white"/>
</mask>
<g mask="url(#mask75_0_7553)">
<path d="M330.8 383C325.2 405.1 308.5 419.5 293.4 415.3C278.3 411.1 270.6 389.7 276.2 367.6C281.8 345.5 298.5 331.1 313.6 335.3C328.7 339.6 336.4 360.9 330.8 383Z" fill="#FFC3B9"/>
</g>
<mask id="mask76_0_7553" style="mask-type:luminance" maskUnits="userSpaceOnUse" x="30" y="41" width="467" height="490">
<path d="M61.5 406C32.3 356 20.3001 307.4 39.4001 252.7C49.9001 222.6 99.3001 77.9999 128.8 65.8999C158.2 53.6999 187.3 33.0999 216 46.9999C227.1 52.3999 242.2 49.1999 257 45.9999C268 43.5999 278.9 41.2999 287.9 42.3999C308.2 44.8999 323.8 47.4999 343.5 42.0999C402 26.1999 438.9 209 476.3 256.7C484.9 267.7 492.1 280.1 495 293.7C501.7 324.8 485.2 355.9 467.9 382.6C444.1 419.2 417 454.3 382.9 481.6C348.8 508.9 307.2 528.3 263.5 530.1C222.2 531.9 181.1 517.9 146.7 494.9C112.4 472 84.4 440.5 61.5 406Z" fill="white"/>
</mask>
<g mask="url(#mask76_0_7553)">
<path d="M365.6 396.4C360 418.5 343.3 432.9 328.2 428.7C313.1 424.5 305.4 403.1 311 381C316.6 358.9 333.3 344.5 348.4 348.7C363.5 353 371.2 374.3 365.6 396.4Z" fill="#FFC3B9"/>
</g>
<mask id="mask77_0_7553" style="mask-type:luminance" maskUnits="userSpaceOnUse" x="30" y="41" width="467" height="490">
<path d="M61.5 406C32.3 356 20.3001 307.4 39.4001 252.7C49.9001 222.6 99.3001 77.9999 128.8 65.8999C158.2 53.6999 187.3 33.0999 216 46.9999C227.1 52.3999 242.2 49.1999 257 45.9999C268 43.5999 278.9 41.2999 287.9 42.3999C308.2 44.8999 323.8 47.4999 343.5 42.0999C402 26.1999 438.9 209 476.3 256.7C484.9 267.7 492.1 280.1 495 293.7C501.7 324.8 485.2 355.9 467.9 382.6C444.1 419.2 417 454.3 382.9 481.6C348.8 508.9 307.2 528.3 263.5 530.1C222.2 531.9 181.1 517.9 146.7 494.9C112.4 472 84.4 440.5 61.5 406Z" fill="white"/>
</mask>
<g mask="url(#mask77_0_7553)">
<path d="M396.8 405.2C391.2 427.3 374.5 441.7 359.4 437.5C344.3 433.3 336.6 411.9 342.2 389.8C347.8 367.7 364.5 353.3 379.6 357.5C394.7 361.8 402.4 383.1 396.8 405.2Z" fill="#FFC3B9"/>
</g>
<mask id="mask78_0_7553" style="mask-type:luminance" maskUnits="userSpaceOnUse" x="30" y="41" width="467" height="490">
<path d="M61.5 406C32.3 356 20.3001 307.4 39.4001 252.7C49.9001 222.6 99.3001 77.9999 128.8 65.8999C158.2 53.6999 187.3 33.0999 216 46.9999C227.1 52.3999 242.2 49.1999 257 45.9999C268 43.5999 278.9 41.2999 287.9 42.3999C308.2 44.8999 323.8 47.4999 343.5 42.0999C402 26.1999 438.9 209 476.3 256.7C484.9 267.7 492.1 280.1 495 293.7C501.7 324.8 485.2 355.9 467.9 382.6C444.1 419.2 417 454.3 382.9 481.6C348.8 508.9 307.2 528.3 263.5 530.1C222.2 531.9 181.1 517.9 146.7 494.9C112.4 472 84.4 440.5 61.5 406Z" fill="white"/>
</mask>
<g mask="url(#mask78_0_7553)">
<path d="M422.1 425.5C417.5 443.7 402.7 455.2 389 451.4C375.3 447.5 367.9 429.7 372.5 411.5C377.1 393.3 391.9 381.7 405.6 385.6C419.3 389.4 426.6 407.3 422.1 425.5Z" fill="#FFC3B9"/>
</g>
<mask id="mask79_0_7553" style="mask-type:luminance" maskUnits="userSpaceOnUse" x="30" y="41" width="467" height="490">
<path d="M61.5 406C32.3 356 20.3001 307.4 39.4001 252.7C49.9001 222.6 99.3001 77.9999 128.8 65.8999C158.2 53.6999 187.3 33.0999 216 46.9999C227.1 52.3999 242.2 49.1999 257 45.9999C268 43.5999 278.9 41.2999 287.9 42.3999C308.2 44.8999 323.8 47.4999 343.5 42.0999C402 26.1999 438.9 209 476.3 256.7C484.9 267.7 492.1 280.1 495 293.7C501.7 324.8 485.2 355.9 467.9 382.6C444.1 419.2 417 454.3 382.9 481.6C348.8 508.9 307.2 528.3 263.5 530.1C222.2 531.9 181.1 517.9 146.7 494.9C112.4 472 84.4 440.5 61.5 406Z" fill="white"/>
</mask>
<g mask="url(#mask79_0_7553)">
<path d="M331.1 354.3C331 354.5 330.9 354.7 330.8 354.9C317.3 369.7 316.8 396.8 316.8 397.1C316.8 397.9 316.1 398.6 315.3 398.6C314.5 398.6 313.8 397.9 313.8 397C313.8 396.7 313.9 389.8 315.7 380.9C317.4 372.6 321 361 328.5 352.8C329.1 352.2 330 352.2 330.7 352.7C331.1 353.1 331.3 353.7 331.1 354.3Z" fill="#F55776"/>
</g>
<mask id="mask80_0_7553" style="mask-type:luminance" maskUnits="userSpaceOnUse" x="30" y="41" width="467" height="490">
<path d="M61.5 406C32.3 356 20.3001 307.4 39.4001 252.7C49.9001 222.6 99.3001 77.9999 128.8 65.8999C158.2 53.6999 187.3 33.0999 216 46.9999C227.1 52.3999 242.2 49.1999 257 45.9999C268 43.5999 278.9 41.2999 287.9 42.3999C308.2 44.8999 323.8 47.4999 343.5 42.0999C402 26.1999 438.9 209 476.3 256.7C484.9 267.7 492.1 280.1 495 293.7C501.7 324.8 485.2 355.9 467.9 382.6C444.1 419.2 417 454.3 382.9 481.6C348.8 508.9 307.2 528.3 263.5 530.1C222.2 531.9 181.1 517.9 146.7 494.9C112.4 472 84.4 440.5 61.5 406Z" fill="white"/>
</mask>
<g mask="url(#mask80_0_7553)">
<path d="M363.4 362.4C363.3 362.6 363.2 362.8 363.1 363C349.6 377.8 349.1 404.9 349.1 405.2C349.1 406 348.4 406.7 347.6 406.7C346.8 406.7 346.1 406 346.1 405.1C346.1 404.8 346.2 397.9 348 389C349.7 380.7 353.3 369.1 360.8 360.9C361.4 360.3 362.3 360.3 363 360.8C363.4 361.2 363.6 361.8 363.4 362.4Z" fill="#F55776"/>
</g>
<mask id="mask81_0_7553" style="mask-type:luminance" maskUnits="userSpaceOnUse" x="30" y="41" width="467" height="490">
<path d="M61.5 406C32.3 356 20.3001 307.4 39.4001 252.7C49.9001 222.6 99.3001 77.9999 128.8 65.8999C158.2 53.6999 187.3 33.0999 216 46.9999C227.1 52.3999 242.2 49.1999 257 45.9999C268 43.5999 278.9 41.2999 287.9 42.3999C308.2 44.8999 323.8 47.4999 343.5 42.0999C402 26.1999 438.9 209 476.3 256.7C484.9 267.7 492.1 280.1 495 293.7C501.7 324.8 485.2 355.9 467.9 382.6C444.1 419.2 417 454.3 382.9 481.6C348.8 508.9 307.2 528.3 263.5 530.1C222.2 531.9 181.1 517.9 146.7 494.9C112.4 472 84.4 440.5 61.5 406Z" fill="white"/>
</mask>
<g mask="url(#mask81_0_7553)">
<path d="M398.9 387.2C398.8 387.4 398.7 387.6 398.5 387.7C382.7 400.1 377.9 426.6 377.9 426.9C377.8 427.7 377 428.3 376.1 428.1C375.3 427.9 374.7 427.1 374.9 426.3C374.9 426 376.1 419.3 379.4 410.8C382.4 402.9 387.9 392.1 396.6 385.3C397.3 384.8 398.2 384.9 398.7 385.6C399.2 386 399.2 386.7 398.9 387.2Z" fill="#F55776"/>
</g>
<defs>
<linearGradient id="paint0_linear_0_7553" x1="217.278" y1="304.356" x2="259.68" y2="292.537" gradientUnits="userSpaceOnUse">
<stop stop-color="#D87C77"/>
<stop offset="0.0653141" stop-color="#D87C77"/>
<stop offset="0.5923" stop-color="#F3636B"/>
<stop offset="0.9216" stop-color="#FF5866"/>
<stop offset="1" stop-color="#FF5866"/>
</linearGradient>
<linearGradient id="paint1_linear_0_7553" x1="261.781" y1="315.571" x2="266.052" y2="314.38" gradientUnits="userSpaceOnUse">
<stop stop-color="#D87C77"/>
<stop offset="0.0653141" stop-color="#D87C77"/>
<stop offset="0.5923" stop-color="#F3636B"/>
<stop offset="0.9216" stop-color="#FF5866"/>
<stop offset="1" stop-color="#FF5866"/>
</linearGradient>
<linearGradient id="paint2_linear_0_7553" x1="213.697" y1="315.404" x2="245.653" y2="306.497" gradientUnits="userSpaceOnUse">
<stop stop-color="#D87C77"/>
<stop offset="0.0653141" stop-color="#D87C77"/>
<stop offset="0.5923" stop-color="#F3636B"/>
<stop offset="0.9216" stop-color="#FF5866"/>
<stop offset="1" stop-color="#FF5866"/>
</linearGradient>
<linearGradient id="paint3_linear_0_7553" x1="209.345" y1="309.916" x2="244.013" y2="300.253" gradientUnits="userSpaceOnUse">
<stop stop-color="#D87C77"/>
<stop offset="0.0653141" stop-color="#D87C77"/>
<stop offset="0.5923" stop-color="#F3636B"/>
<stop offset="0.9216" stop-color="#FF5866"/>
<stop offset="1" stop-color="#FF5866"/>
</linearGradient>
<linearGradient id="paint4_linear_0_7553" x1="250.446" y1="315.827" x2="259.962" y2="313.175" gradientUnits="userSpaceOnUse">
<stop stop-color="#D87C77"/>
<stop offset="0.0653141" stop-color="#D87C77"/>
<stop offset="0.5923" stop-color="#F3636B"/>
<stop offset="0.9216" stop-color="#FF5866"/>
<stop offset="1" stop-color="#FF5866"/>
</linearGradient>
<linearGradient id="paint5_linear_0_7553" x1="228.168" y1="313.815" x2="242.126" y2="309.925" gradientUnits="userSpaceOnUse">
<stop stop-color="#D87C77"/>
<stop offset="0.0653141" stop-color="#D87C77"/>
<stop offset="0.5923" stop-color="#F3636B"/>
<stop offset="0.9216" stop-color="#FF5866"/>
<stop offset="1" stop-color="#FF5866"/>
</linearGradient>
<linearGradient id="paint6_linear_0_7553" x1="215.784" y1="318.139" x2="230.946" y2="313.913" gradientUnits="userSpaceOnUse">
<stop stop-color="#D87C77"/>
<stop offset="0.0653141" stop-color="#D87C77"/>
<stop offset="0.5923" stop-color="#F3636B"/>
<stop offset="0.9216" stop-color="#FF5866"/>
<stop offset="1" stop-color="#FF5866"/>
</linearGradient>
<linearGradient id="paint7_linear_0_7553" x1="232.223" y1="309.941" x2="251.54" y2="304.557" gradientUnits="userSpaceOnUse">
<stop stop-color="#D87C77"/>
<stop offset="0.0653141" stop-color="#D87C77"/>
<stop offset="0.5923" stop-color="#F3636B"/>
<stop offset="0.9216" stop-color="#FF5866"/>
<stop offset="1" stop-color="#FF5866"/>
</linearGradient>
<linearGradient id="paint8_linear_0_7553" x1="204.91" y1="317.688" x2="217.016" y2="314.313" gradientUnits="userSpaceOnUse">
<stop stop-color="#D87C77"/>
<stop offset="0.0653141" stop-color="#D87C77"/>
<stop offset="0.5923" stop-color="#F3636B"/>
<stop offset="0.9216" stop-color="#FF5866"/>
<stop offset="1" stop-color="#FF5866"/>
</linearGradient>
<linearGradient id="paint9_linear_0_7553" x1="237.922" y1="318.722" x2="249.121" y2="315.601" gradientUnits="userSpaceOnUse">
<stop stop-color="#D87C77"/>
<stop offset="0.0653141" stop-color="#D87C77"/>
<stop offset="0.5923" stop-color="#F3636B"/>
<stop offset="0.9216" stop-color="#FF5866"/>
<stop offset="1" stop-color="#FF5866"/>
</linearGradient>
<linearGradient id="paint10_linear_0_7553" x1="246.931" y1="324.534" x2="255.75" y2="322.076" gradientUnits="userSpaceOnUse">
<stop stop-color="#D87C77"/>
<stop offset="0.0653141" stop-color="#D87C77"/>
<stop offset="0.5923" stop-color="#F3636B"/>
<stop offset="0.9216" stop-color="#FF5866"/>
<stop offset="1" stop-color="#FF5866"/>
</linearGradient>
<linearGradient id="paint11_linear_0_7553" x1="210.918" y1="331.727" x2="217.916" y2="329.776" gradientUnits="userSpaceOnUse">
<stop stop-color="#D87C77"/>
<stop offset="0.0653141" stop-color="#D87C77"/>
<stop offset="0.5923" stop-color="#F3636B"/>
<stop offset="0.9216" stop-color="#FF5866"/>
<stop offset="1" stop-color="#FF5866"/>
</linearGradient>
<linearGradient id="paint12_linear_0_7553" x1="216.239" y1="338.568" x2="222.02" y2="336.957" gradientUnits="userSpaceOnUse">
<stop stop-color="#D87C77"/>
<stop offset="0.0653141" stop-color="#D87C77"/>
<stop offset="0.5923" stop-color="#F3636B"/>
<stop offset="0.9216" stop-color="#FF5866"/>
<stop offset="1" stop-color="#FF5866"/>
</linearGradient>
<linearGradient id="paint13_linear_0_7553" x1="218.287" y1="331.871" x2="250.243" y2="322.964" gradientUnits="userSpaceOnUse">
<stop stop-color="#BF6B67"/>
<stop offset="0.0653141" stop-color="#BF6B67"/>
<stop offset="0.5829" stop-color="#D7555D"/>
<stop offset="0.9216" stop-color="#E24C58"/>
<stop offset="1" stop-color="#E24C58"/>
</linearGradient>
<linearGradient id="paint14_linear_0_7553" x1="255.297" y1="333.23" x2="264.812" y2="330.578" gradientUnits="userSpaceOnUse">
<stop stop-color="#BF6B67"/>
<stop offset="0.0653141" stop-color="#BF6B67"/>
<stop offset="0.5829" stop-color="#D7555D"/>
<stop offset="0.9216" stop-color="#E24C58"/>
<stop offset="1" stop-color="#E24C58"/>
</linearGradient>
<linearGradient id="paint15_linear_0_7553" x1="231.058" y1="324.184" x2="245.016" y2="320.294" gradientUnits="userSpaceOnUse">
<stop stop-color="#BF6B67"/>
<stop offset="0.0653141" stop-color="#BF6B67"/>
<stop offset="0.5829" stop-color="#D7555D"/>
<stop offset="0.9216" stop-color="#E24C58"/>
<stop offset="1" stop-color="#E24C58"/>
</linearGradient>
<linearGradient id="paint16_linear_0_7553" x1="228.624" y1="332.717" x2="241.257" y2="329.196" gradientUnits="userSpaceOnUse">
<stop stop-color="#BF6B67"/>
<stop offset="0.0653141" stop-color="#BF6B67"/>
<stop offset="0.5829" stop-color="#D7555D"/>
<stop offset="0.9216" stop-color="#E24C58"/>
<stop offset="1" stop-color="#E24C58"/>
</linearGradient>
<linearGradient id="paint17_linear_0_7553" x1="218.409" y1="327.559" x2="233.571" y2="323.333" gradientUnits="userSpaceOnUse">
<stop stop-color="#BF6B67"/>
<stop offset="0.0653141" stop-color="#BF6B67"/>
<stop offset="0.5829" stop-color="#D7555D"/>
<stop offset="0.9216" stop-color="#E24C58"/>
<stop offset="1" stop-color="#E24C58"/>
</linearGradient>
<linearGradient id="paint18_linear_0_7553" x1="241.559" y1="331.771" x2="252.758" y2="328.65" gradientUnits="userSpaceOnUse">
<stop stop-color="#BF6B67"/>
<stop offset="0.0653141" stop-color="#BF6B67"/>
<stop offset="0.5829" stop-color="#D7555D"/>
<stop offset="0.9216" stop-color="#E24C58"/>
<stop offset="1" stop-color="#E24C58"/>
</linearGradient>
<linearGradient id="paint19_linear_0_7553" x1="249.077" y1="332.236" x2="257.897" y2="329.777" gradientUnits="userSpaceOnUse">
<stop stop-color="#BF6B67"/>
<stop offset="0.0653141" stop-color="#BF6B67"/>
<stop offset="0.5829" stop-color="#D7555D"/>
<stop offset="0.9216" stop-color="#E24C58"/>
<stop offset="1" stop-color="#E24C58"/>
</linearGradient>
<linearGradient id="paint20_linear_0_7553" x1="228.056" y1="331.202" x2="234.929" y2="329.286" gradientUnits="userSpaceOnUse">
<stop stop-color="#BF6B67"/>
<stop offset="0.0653141" stop-color="#BF6B67"/>
<stop offset="0.5829" stop-color="#D7555D"/>
<stop offset="0.9216" stop-color="#E24C58"/>
<stop offset="1" stop-color="#E24C58"/>
</linearGradient>
<linearGradient id="paint21_linear_0_7553" x1="237.257" y1="342.249" x2="245.126" y2="340.056" gradientUnits="userSpaceOnUse">
<stop stop-color="#BF6B67"/>
<stop offset="0.0653141" stop-color="#BF6B67"/>
<stop offset="0.5829" stop-color="#D7555D"/>
<stop offset="0.9216" stop-color="#E24C58"/>
<stop offset="1" stop-color="#E24C58"/>
</linearGradient>
<linearGradient id="paint22_linear_0_7553" x1="226.058" y1="343.356" x2="232.1" y2="341.672" gradientUnits="userSpaceOnUse">
<stop stop-color="#BF6B67"/>
<stop offset="0.0653141" stop-color="#BF6B67"/>
<stop offset="0.5829" stop-color="#D7555D"/>
<stop offset="0.9216" stop-color="#E24C58"/>
<stop offset="1" stop-color="#E24C58"/>
</linearGradient>
<linearGradient id="paint23_linear_0_7553" x1="216.162" y1="338.291" x2="221.942" y2="336.68" gradientUnits="userSpaceOnUse">
<stop stop-color="#BF6B67"/>
<stop offset="0.0653141" stop-color="#BF6B67"/>
<stop offset="0.5829" stop-color="#D7555D"/>
<stop offset="0.9216" stop-color="#E24C58"/>
<stop offset="1" stop-color="#E24C58"/>
</linearGradient>
</defs>
</svg>
